<svg xmlns="http://www.w3.org/2000/svg" viewBox="0 0 569.32 347.32"><defs><style>.cls-1{fill:#7de314;}.cls-2{fill:#01cc9b;}.cls-3{fill:#14a0c0;}.cls-4{fill:#5059ab;}.cls-5{fill:#09909f;}.cls-6{fill:#e6e6e6;}.cls-7{fill:#3f720a;}.cls-8{fill:#01664e;}.cls-9{fill:#0a5060;}.cls-10{fill:#fff;}.cls-11{fill:#ccc;}.cls-12{fill:#3c4380;}.cls-13{fill:#076c77;}.cls-14{fill:#4f7bac;}.cls-15{fill:#5eaa0f;}.cls-16{fill:#019974;}.cls-17{fill:#0f7890;}</style></defs><title>steps-new</title><path class="cls-1" d="M314.31,30.07H218.79a2.51,2.51,0,0,1,0,1h95.51a2.49,2.49,0,0,1,0-1Z"/><path class="cls-1" d="M316.83,28a2.58,2.58,0,1,0,2.58,2.58A2.58,2.58,0,0,0,316.83,28Zm0,4.15a1.58,1.58,0,1,1,1.58-1.58A1.58,1.58,0,0,1,316.83,32.15Z"/><path class="cls-1" d="M218.79,30.07a2.51,2.51,0,1,0,.05.5A2.58,2.58,0,0,0,218.79,30.07Zm-2.52,2.08a1.58,1.58,0,1,1,1.58-1.58A1.58,1.58,0,0,1,216.27,32.15Z"/><path class="cls-2" d="M374.49,94.43H279a2.49,2.49,0,0,1,0,1h95.51a2.49,2.49,0,0,1,0-1Z"/><path class="cls-2" d="M377,92.35a2.58,2.58,0,1,0,2.57,2.58A2.58,2.58,0,0,0,377,92.35Zm0,4.15a1.58,1.58,0,1,1,1.57-1.58A1.58,1.58,0,0,1,377,96.5Z"/><path class="cls-2" d="M279,94.43a2.49,2.49,0,1,0,.05.5A2.58,2.58,0,0,0,279,94.43Zm-2.52,2.08A1.58,1.58,0,1,1,278,94.93,1.58,1.58,0,0,1,276.45,96.5Z"/><path class="cls-3" d="M390.23,170.14H294.72a2.49,2.49,0,0,1,0,1h95.51a2.49,2.49,0,0,1,0-1Z"/><path class="cls-3" d="M392.76,168.07a2.58,2.58,0,1,0,2.57,2.58A2.58,2.58,0,0,0,392.76,168.07Zm0,4.15a1.58,1.58,0,1,1,1.57-1.58A1.58,1.58,0,0,1,392.76,172.22Z"/><path class="cls-3" d="M294.72,170.14a2.49,2.49,0,1,0,.05.5A2.58,2.58,0,0,0,294.72,170.14Zm-2.52,2.08a1.58,1.58,0,1,1,1.58-1.58A1.58,1.58,0,0,1,292.19,172.22Z"/><path class="cls-4" d="M374.49,248.06H279a2.49,2.49,0,0,1,0,1h95.51a2.49,2.49,0,0,1,0-1Z"/><path class="cls-4" d="M377,246a2.58,2.58,0,1,0,2.57,2.58A2.58,2.58,0,0,0,377,246Zm0,4.15a1.58,1.58,0,1,1,1.57-1.58A1.58,1.58,0,0,1,377,250.14Z"/><path class="cls-4" d="M279,248.06a2.49,2.49,0,1,0,.05.5A2.58,2.58,0,0,0,279,248.06Zm-2.52,2.08a1.58,1.58,0,1,1,1.58-1.58A1.58,1.58,0,0,1,276.45,250.14Z"/><path class="cls-5" d="M314.31,311.47H218.79a2.51,2.51,0,0,1,0,1h95.51a2.49,2.49,0,0,1,0-1Z"/><path class="cls-5" d="M316.83,309.39a2.58,2.58,0,1,0,2.58,2.57A2.58,2.58,0,0,0,316.83,309.39Zm0,4.15a1.58,1.58,0,1,1,1.58-1.58A1.58,1.58,0,0,1,316.83,313.54Z"/><path class="cls-5" d="M218.79,311.47a2.51,2.51,0,1,0,.05.5A2.58,2.58,0,0,0,218.79,311.47Zm-2.52,2.08a1.58,1.58,0,1,1,1.58-1.58A1.58,1.58,0,0,1,216.27,313.54Z"/><path class="cls-6" d="M469.42,48.79H379.25a20.39,20.39,0,0,1-20.33-20.33h0A20.39,20.39,0,0,1,379.25,8.13h90.16a20.39,20.39,0,0,1,20.33,20.33h0A20.39,20.39,0,0,1,469.42,48.79Z"/><path class="cls-1" d="M380.14,57.22a28.61,28.61,0,1,1,28.61-28.61A28.64,28.64,0,0,1,380.14,57.22Zm0-54.22a25.61,25.61,0,1,0,25.61,25.61A25.64,25.64,0,0,0,380.14,3Z"/><path class="cls-7" d="M381.72,28.38a12.26,12.26,0,0,1-.62,4,10,10,0,0,1-1.72,3.15,7.83,7.83,0,0,1-2.61,2.07,7.67,7.67,0,0,1-6.57,0,7.82,7.82,0,0,1-2.61-2.07,9.91,9.91,0,0,1-1.72-3.15,13.06,13.06,0,0,1,0-8,9.9,9.9,0,0,1,1.72-3.15,8,8,0,0,1,2.61-2.09,7.52,7.52,0,0,1,6.57,0,8,8,0,0,1,2.61,2.09,9.94,9.94,0,0,1,1.72,3.15A12.26,12.26,0,0,1,381.72,28.38Zm-2.27,0a11,11,0,0,0-.44-3.22,7.86,7.86,0,0,0-1.23-2.48,5.64,5.64,0,0,0-1.89-1.61,5.15,5.15,0,0,0-2.42-.57,5.21,5.21,0,0,0-2.45.57,5.64,5.64,0,0,0-1.89,1.61,7.86,7.86,0,0,0-1.23,2.48,11.91,11.91,0,0,0,0,6.44,7.85,7.85,0,0,0,1.23,2.48A5.47,5.47,0,0,0,371,35.68a5.33,5.33,0,0,0,2.45.56,5.26,5.26,0,0,0,2.42-.56,5.47,5.47,0,0,0,1.89-1.59A7.85,7.85,0,0,0,379,31.6,11,11,0,0,0,379.45,28.38Z"/><path class="cls-7" d="M396.87,36v2H385.73V36h4.67V21.91a3.59,3.59,0,0,1-.9.85,11,11,0,0,1-1.41.85,10.64,10.64,0,0,1-1.59.66,4.82,4.82,0,0,1-1.45.26V22.37a3.92,3.92,0,0,0,1.66-.43,11.93,11.93,0,0,0,1.71-1,15,15,0,0,0,1.36-1.05,2.83,2.83,0,0,0,.62-.66h2.3V36Z"/><path class="cls-6" d="M526.05,113.23H435.94a20.38,20.38,0,0,1-20.32-20.32h0a20.38,20.38,0,0,1,20.32-20.32h90.11a20.38,20.38,0,0,1,20.32,20.32h0A20.38,20.38,0,0,1,526.05,113.23Z"/><path class="cls-2" d="M436.82,121.65a28.59,28.59,0,1,1,28.59-28.59A28.63,28.63,0,0,1,436.82,121.65Zm0-54.19a25.59,25.59,0,1,0,25.59,25.59A25.62,25.62,0,0,0,436.82,67.47Z"/><path class="cls-8" d="M438.4,92.83a12.27,12.27,0,0,1-.62,4,10,10,0,0,1-1.72,3.15,7.83,7.83,0,0,1-2.61,2.07,7.66,7.66,0,0,1-6.57,0,7.81,7.81,0,0,1-2.61-2.07,10,10,0,0,1-1.72-3.15,13.07,13.07,0,0,1,0-8,9.93,9.93,0,0,1,1.72-3.15,8,8,0,0,1,2.61-2.09,7.52,7.52,0,0,1,6.57,0,8,8,0,0,1,2.61,2.09,10,10,0,0,1,1.72,3.15A12.27,12.27,0,0,1,438.4,92.83Zm-2.27,0a11,11,0,0,0-.44-3.22,7.86,7.86,0,0,0-1.23-2.48,5.64,5.64,0,0,0-1.89-1.61,5.14,5.14,0,0,0-2.41-.57,5.21,5.21,0,0,0-2.45.57,5.64,5.64,0,0,0-1.89,1.61,7.84,7.84,0,0,0-1.23,2.48,11.9,11.9,0,0,0,0,6.44,7.83,7.83,0,0,0,1.23,2.48,5.46,5.46,0,0,0,1.89,1.59,5.32,5.32,0,0,0,2.45.56,5.25,5.25,0,0,0,2.41-.56,5.46,5.46,0,0,0,1.89-1.59,7.85,7.85,0,0,0,1.23-2.48A11,11,0,0,0,436.14,92.83Z"/><path class="cls-8" d="M441.65,102.45a13.16,13.16,0,0,1,.2-2.25,7.87,7.87,0,0,1,.77-2.25,8.32,8.32,0,0,1,1.64-2.15,12,12,0,0,1,2.84-2q1-.49,2-1A13.23,13.23,0,0,0,451,91.82a6,6,0,0,0,1.43-1.33,2.78,2.78,0,0,0,.56-1.72,2.93,2.93,0,0,0-.28-1.23,3.25,3.25,0,0,0-.82-1.08,4.22,4.22,0,0,0-1.35-.77,5.48,5.48,0,0,0-1.89-.3,5.61,5.61,0,0,0-1.94.31,7,7,0,0,0-1.49.74,6.7,6.7,0,0,0-1.1.9q-.46.48-.69.77l-1.48-1.61.75-.72a8,8,0,0,1,1.46-1.05,11.62,11.62,0,0,1,2.12-.94,8.5,8.5,0,0,1,2.73-.41,8.19,8.19,0,0,1,2.69.41,6,6,0,0,1,2,1.13A4.92,4.92,0,0,1,455,86.58a4.67,4.67,0,0,1,.43,2,4.44,4.44,0,0,1-.59,2.33,6.63,6.63,0,0,1-1.46,1.71,10.24,10.24,0,0,1-1.86,1.23q-1,.51-1.77.87a21.36,21.36,0,0,0-2.05,1A11.07,11.07,0,0,0,445.86,97a6.39,6.39,0,0,0-1.3,1.54,3.65,3.65,0,0,0-.51,1.9h11.69v2Z"/><path class="cls-6" d="M549,191.06H458.89a20.38,20.38,0,0,1-20.32-20.32h0a20.38,20.38,0,0,1,20.32-20.32H549a20.38,20.38,0,0,1,20.32,20.32h0A20.38,20.38,0,0,1,549,191.06Z"/><path class="cls-3" d="M459.77,199.48a28.59,28.59,0,1,1,28.59-28.59A28.63,28.63,0,0,1,459.77,199.48Zm0-54.19a25.59,25.59,0,1,0,25.59,25.59A25.62,25.62,0,0,0,459.77,145.29Z"/><path class="cls-9" d="M461.35,170.66a12.27,12.27,0,0,1-.62,4A9.94,9.94,0,0,1,459,177.8a7.83,7.83,0,0,1-2.61,2.07,7.67,7.67,0,0,1-6.57,0,7.82,7.82,0,0,1-2.61-2.07,9.92,9.92,0,0,1-1.72-3.15,13.06,13.06,0,0,1,0-8,9.94,9.94,0,0,1,1.72-3.15,8,8,0,0,1,2.61-2.09,7.51,7.51,0,0,1,6.57,0,8,8,0,0,1,2.61,2.09,10,10,0,0,1,1.72,3.15A12.27,12.27,0,0,1,461.35,170.66Zm-2.27,0a11,11,0,0,0-.44-3.22,7.86,7.86,0,0,0-1.23-2.48,5.64,5.64,0,0,0-1.89-1.61,5.14,5.14,0,0,0-2.41-.58,5.21,5.21,0,0,0-2.45.58,5.64,5.64,0,0,0-1.89,1.61,7.84,7.84,0,0,0-1.23,2.48,11.9,11.9,0,0,0,0,6.44,7.83,7.83,0,0,0,1.23,2.48,5.47,5.47,0,0,0,1.89,1.59,5.33,5.33,0,0,0,2.45.56,5.26,5.26,0,0,0,2.41-.56,5.47,5.47,0,0,0,1.89-1.59,7.85,7.85,0,0,0,1.23-2.48A11,11,0,0,0,459.09,170.66Z"/><path class="cls-9" d="M474.42,172.53a5.43,5.43,0,0,1,3.46,2,6.13,6.13,0,0,1,1.3,4,6.65,6.65,0,0,1-.54,2.71,5.9,5.9,0,0,1-1.54,2.1,7.13,7.13,0,0,1-2.4,1.35,9.57,9.57,0,0,1-3.1.48,9.12,9.12,0,0,1-4.37-1,6.71,6.71,0,0,1-2.82-2.77l1.54-1.41a5.32,5.32,0,0,0,2.1,2.3,6.76,6.76,0,0,0,3.55.85,5.8,5.8,0,0,0,3.88-1.2,4.25,4.25,0,0,0,1.41-3.43,4.54,4.54,0,0,0-1.48-3.58,6.23,6.23,0,0,0-4.27-1.31h-.82v-1.9h.89a5.75,5.75,0,0,0,3.88-1.17,3.83,3.83,0,0,0,1.35-3,4,4,0,0,0-.36-1.74,3.55,3.55,0,0,0-1-1.26,4.5,4.5,0,0,0-1.51-.77,6.52,6.52,0,0,0-1.89-.26,6.4,6.4,0,0,0-3.3.84,5.35,5.35,0,0,0-2.15,2.31l-1.44-1.38a5.23,5.23,0,0,1,1.12-1.56,7.21,7.21,0,0,1,1.64-1.2,8.83,8.83,0,0,1,2-.77,9.46,9.46,0,0,1,2.3-.28,8.65,8.65,0,0,1,2.78.43,6.68,6.68,0,0,1,2.18,1.2,5.38,5.38,0,0,1,1.43,1.86,5.56,5.56,0,0,1,.51,2.4,6,6,0,0,1-.29,1.89,5.16,5.16,0,0,1-.85,1.61,4.92,4.92,0,0,1-1.36,1.18A4.73,4.73,0,0,1,474.42,172.53Z"/><path class="cls-1" d="M4.08,144.46,73,166.86V94.38C41.18,94.78,14.3,114.32,4.08,144.46Z"/><path class="cls-5" d="M29.79,227.39l42.6-58.63L3.46,146.36C-6,176.76,4.28,208.36,29.79,227.39Z"/><path class="cls-4" d="M116.61,228.57,74,169.94l-42.6,58.63C57.39,247,90.62,247,116.61,228.57Z"/><path class="cls-3" d="M144.56,146.36,75.63,168.76l42.6,58.63C143.74,208.36,154,176.76,144.56,146.36Z"/><polygon class="cls-10" points="73.01 167.51 72.39 167.71 72.77 168.23 73.01 168.56 73.01 167.51"/><path class="cls-2" d="M75,94.38v72.48l68.93-22.4C133.72,114.32,106.84,94.78,75,94.38Z"/><circle class="cls-11" cx="74.01" cy="168.38" r="66.18"/><path class="cls-10" d="M34.64,192.64a.42.42,0,0,1-.24-.08.6.6,0,0,1-.16-.19l0-.07-.06-.08A1.46,1.46,0,0,1,34,192a.35.35,0,0,0-.21-.21l-.13,0h0a.54.54,0,0,1-.17-.08,1.31,1.31,0,0,1-.17-.15l-.1-.09a1.72,1.72,0,0,1-.27-.28.89.89,0,0,1-.11-.19l-.06-.11a.43.43,0,0,0-.26-.2l-.19-.06-.15-.05-.17,0h-.31a.34.34,0,0,0-.22.05l-.07.06a.38.38,0,0,1-.25.14h0c-.1,0-.16-.11-.21-.19l0-.07a1.14,1.14,0,0,0-.18-.17l-.06,0a1.48,1.48,0,0,0-.42-.27.67.67,0,0,0-.23-.05h0l-.11,0-.11,0h-.13a.7.7,0,0,1-.22,0l-.1,0-.12,0-.06,0-.24-.08-.21-.11a2.33,2.33,0,0,0-.32-.15l-.16,0-.08,0-.12,0-.11,0a.64.64,0,0,0-.27.18l-.06.09,0,.06,0,0a3.13,3.13,0,0,1-.53-.57,2.51,2.51,0,0,0-.74-.78,1.06,1.06,0,0,1-.55-.42c-.08-.15-.12-.16-.16-.16l-.1,0h0a.59.59,0,0,1-.22.07c-.06,0-.14,0-.17-.16s0-.1,0-.13a.21.21,0,0,0-.1-.17l-.1-.07c-.09-.06-.17-.11-.18-.18a.08.08,0,0,1,0-.07.15.15,0,0,0,0-.17.19.19,0,0,1,0-.15.08.08,0,0,1,.07,0c.06,0,.18,0,.19.13s0,.1.05.1l0,0,.07,0a.36.36,0,0,0,.21-.25c.07-.25.1-.33.16-.38l.07,0s.08,0,.1-.1h0c.05-.22.08-.3.13-.3l0,0a.17.17,0,0,1,0,.13.56.56,0,0,0,0,.11.56.56,0,0,0,.06-.14c0-.09,0-.16.1-.16l.09,0,.09,0h0s0-.06,0-.09a1.36,1.36,0,0,0-.34-.21h0c-.07,0-.12,0-.12-.14a.56.56,0,0,0,0-.09c0-.08,0-.16,0-.2a.1.1,0,0,1,.08,0h.13a.16.16,0,0,0,.11,0,.2.2,0,0,1,.12-.05h0l.05,0,.05,0s0,0,0,0a.85.85,0,0,0,0-.1c0-.08,0-.16.11-.19h.19l.08,0a.53.53,0,0,1,.15-.06l0,0a.1.1,0,0,0,0-.11s0-.06-.08-.06H26.6l-.14,0a.86.86,0,0,1-.23.06h-.05a.75.75,0,0,0-.24,0h-.08v0s0-.1,0-.16v0a1.9,1.9,0,0,1,0-.36.32.32,0,0,1,.19-.22.93.93,0,0,0,.26-.18.52.52,0,0,1,.3-.17h.13a.45.45,0,0,0,.19,0c.06,0,.08-.1.09-.18v0a1.6,1.6,0,0,1,.08-.24l0-.12a.39.39,0,0,0,0-.33l-.06-.08a.35.35,0,0,1-.09-.14.48.48,0,0,1,.25-.51l0,0a.29.29,0,0,0,.16-.25c0-.1-.09-.16-.19-.21a1.46,1.46,0,0,1-.26-.2h0a.54.54,0,0,0-.3-.14.3.3,0,0,1-.26-.16l0-.06c0-.08-.08-.17-.16-.19h0a.42.42,0,0,0-.2.08l0,0a.24.24,0,0,1-.29,0l-.05,0,0,0a.25.25,0,0,1-.06-.07v0l0,0a.69.69,0,0,1-.1-.2v0c0-.06,0-.16-.09-.16h0l-.05,0-.09,0a1.09,1.09,0,0,1-.25.06h-.24a.43.43,0,0,1-.13-.06l-.06,0a.6.6,0,0,0-.29-.12l-.14,0-.15,0a.27.27,0,0,1-.14,0,.58.58,0,0,1-.24-.35,1,1,0,0,1,0-.22v-.06a.35.35,0,0,0,0-.17.17.17,0,0,0-.11-.06h0a.54.54,0,0,1-.19-.09l-.07-.06L23,178.9l-.12-.07-.06,0a.36.36,0,0,1-.24-.32.83.83,0,0,1,0-.16.52.52,0,0,0,0-.22.65.65,0,0,0-.05-.13l0,0a1.86,1.86,0,0,1-.08-.2l0-.11a1.27,1.27,0,0,0-.08-.23.14.14,0,0,0-.13-.08l-.15,0h0a.44.44,0,0,1-.18,0h0l-.13,0h-.36a.42.42,0,0,1-.17,0l-.11,0h0a.41.41,0,0,0-.14.08h0a1.43,1.43,0,0,1-.35.18l-.1,0-.09,0a.24.24,0,0,1-.09-.11l0,0,0,0a.75.75,0,0,1,0-.13.32.32,0,0,1,0-.15,1,1,0,0,0,.06-.28.48.48,0,0,0,0-.24.32.32,0,0,1,0-.15.11.11,0,0,1,.07-.13l.08-.06a.35.35,0,0,1,.19-.09h0a1.27,1.27,0,0,1,.3,0h.29a.2.2,0,0,0,.19-.12.73.73,0,0,0,0-.32,1.65,1.65,0,0,0-.07-.34l0,0,0,0h-.15l-.06,0h-.05l-.07,0,0,0,0,0h0a.35.35,0,0,1-.11-.12l0-.07v-.05a.22.22,0,0,1,0-.11l0-.08v0h0a.34.34,0,0,1,0-.12.91.91,0,0,0-.15-.26l-.05-.08,0,0a.58.58,0,0,0-.11-.13l0,0-.06,0a.33.33,0,0,1-.06-.11.34.34,0,0,1,0-.13.69.69,0,0,0,0-.12.71.71,0,0,1,0-.13,1.29,1.29,0,0,1,.06-.32l0-.1a.36.36,0,0,0-.07-.34.77.77,0,0,0-.34-.17l-.07,0a.87.87,0,0,0-.27-.06h-.06l-.2.05-.16,0h0v0a.32.32,0,0,1,0-.09v0l0-.07,0-.07v-.07a.2.2,0,0,0,0-.09.13.13,0,0,0-.09,0h0l-.1,0s0,0,0,.05v0s0,0-.06,0-.06,0-.08-.06l-.21-.25h0l0,0h-.06l-.12-.05-.05,0,0,0a.11.11,0,0,1,0-.11v0l0-.1a.69.69,0,0,1,0-.09.3.3,0,0,0,0-.17c0-.13-.07-.17-.1-.19h0a.14.14,0,0,1-.09-.05l-.08-.13a.75.75,0,0,1,0-.1v0a.29.29,0,0,1,0-.16v0h0a.16.16,0,0,1,.1-.09h0s.06,0,.06-.07a.28.28,0,0,0-.06-.14.49.49,0,0,1-.06-.12l0-.06,0-.08,0-.07,0-.06h0a.29.29,0,0,1,0-.14.14.14,0,0,1,.07-.1h0l0,0,.06,0a.32.32,0,0,0,.07-.2.22.22,0,0,0-.09-.16l0,0a.33.33,0,0,1-.12-.26.81.81,0,0,1,0-.16s0-.07,0-.11v0a.48.48,0,0,1,0-.11l0-.08,0,0a.67.67,0,0,0,.05-.14l0-.08a.43.43,0,0,1,.07-.12.43.43,0,0,0,.05-.09v0a.69.69,0,0,0,.07-.22v-.1a.67.67,0,0,0,0-.22l0-.11v0h0l.07,0h0s0,0,0-.05,0-.3.13-.3a.14.14,0,0,1,.09,0l.08.06c0-.08.06-.2.18-.2l.08,0a.56.56,0,0,0,.19,0c.08,0,.09,0,.1-.05v0c0-.07,0-.16.17-.16h.07l.16,0,.27,0h.11a1.27,1.27,0,0,0,.26,0h0l-.16-.09a.28.28,0,0,1-.15-.12v0a.29.29,0,0,0-.26-.2h-.07l-.16,0h-.06s-.06,0-.13-.06h0l-.14-.07c-.17-.09-.27-.15-.27-.21s0,0,.06-.06.12,0,.13-.06,0,0,0-.06a.45.45,0,0,1,0-.11c0-.09,0-.16-.08-.16a.22.22,0,0,0-.12.06l-.07.05c-.14.11-.22.16-.34.16l-.15,0h-.05l0,0,.06-.07,0-.05a2.15,2.15,0,0,1,.22-.25l.13-.13c.11-.11.22-.22.33-.32a3.87,3.87,0,0,1,.34-.25,4,4,0,0,0,.33-.25,4.7,4.7,0,0,0,.62-.65l.17-.24a2.87,2.87,0,0,1,.31-.4l.07-.07a1.78,1.78,0,0,0,.17-.19,1.21,1.21,0,0,0,.13-.24l.06-.12A.63.63,0,0,0,21,162a.65.65,0,0,0-.17-.24h0l-.25-.26-.15-.14a1.47,1.47,0,0,1-.35-.38.23.23,0,0,1,0-.23l.08-.12.07-.09,0,0a.23.23,0,0,0,0-.09s0,0,0-.07a.33.33,0,0,1-.12-.21.2.2,0,0,1,0-.06.08.08,0,0,0,0,0l0,0,0,0c0-.07,0-.15.05-.23l0-.08v0h-.08l-.08,0c-.07,0-.18-.11-.19-.21a.27.27,0,0,1,.07-.16l0-.07a.9.9,0,0,0,.08-.27.4.4,0,0,0,0-.15.62.62,0,0,1,0-.11.26.26,0,0,1,0-.17l0-.06a.24.24,0,0,0,0-.07.21.21,0,0,0,0-.08.16.16,0,0,1,.07-.17.2.2,0,0,1,.1,0h.06s.07,0,.08,0,0-.12,0-.18l0-.06a1.32,1.32,0,0,1,0-.14.79.79,0,0,0-.05-.17,2.45,2.45,0,0,1-.14-.35l0-.12a1.1,1.1,0,0,1-.06-.2v0a.26.26,0,0,0,0-.1l0,0,0-.05a.43.43,0,0,1,0-.11v0l0,0,0-.05a.32.32,0,0,1,0-.25,1.15,1.15,0,0,1,.22-.32h0l.13-.13,0-.05a.48.48,0,0,1,.09-.11l0,0,0,0,0-.05,0,0c0-.06.05-.08,0-.14l0,0,0,0,0,0,0,0,0,0-.08-.09a.38.38,0,0,1-.14-.12l-.08-.08,0,0s-.08-.08-.13-.08h-.12a.11.11,0,0,1-.1-.05.41.41,0,0,1,0-.17s0,0,0,0a.53.53,0,0,1,0-.22c0-.08.06-.16.09-.24a.45.45,0,0,1,.12-.15l0,0a.1.1,0,0,0,0-.07.07.07,0,0,0,0,0l0,0a.14.14,0,0,1-.1-.1.2.2,0,0,1,.08-.21l0,0c.05,0,.09,0,.09-.09a.19.19,0,0,0,0-.07V153l.06,0,.05,0,.06,0a.27.27,0,0,0,.14.08c.06,0,.11-.09.13-.15v0l.1-.16,0,0,0-.06a.51.51,0,0,1,.11-.15.3.3,0,0,1,.21-.07h.13l.1,0a.11.11,0,0,0,.08,0,.31.31,0,0,0,0-.23.33.33,0,0,0,0,0,.91.91,0,0,1,0-.23v0h0l.09,0a.3.3,0,0,1,.13,0,.18.18,0,0,1,.12.05.15.15,0,0,0,.1,0c.05,0,.07,0,.07.1a.13.13,0,0,0,.12.11.05.05,0,0,0,0,0,.26.26,0,0,0,0-.1c0-.05,0-.12.08-.13h0c.07,0,.07,0,.07-.09s.06-.21.13-.21l0,0,0,.05a.11.11,0,0,0,.12.07c.14,0,.17,0,.2.11h0c0,.05.07.13.13.13h0a.08.08,0,0,1,.08,0s0,.08,0,.14a.16.16,0,0,1-.16.11h-.07l-.13,0-.14,0h0a.1.1,0,0,0,0,.08l0,0a.07.07,0,0,1,.06,0,.11.11,0,0,1,0,.1v0a.36.36,0,0,0,0,.1h0l.13-.08a.18.18,0,0,1,.09,0h0a.42.42,0,0,1,.15.16c0,.07,0,.08.05.08h0l0-.06s0-.06.07-.06a.07.07,0,0,1,.05,0c.08.12.06.18,0,.21a.87.87,0,0,0-.13.26L23,153a.59.59,0,0,1,.2-.13,1.33,1.33,0,0,1,.36-.07l.1,0,.09,0a.58.58,0,0,0,.31.1h.1a1,1,0,0,1,.35,0l.08,0a3.33,3.33,0,0,1,.67.33,1.49,1.49,0,0,0,.39.29.37.37,0,0,1,.2.13l.06.05.2.19.21.2a.27.27,0,0,0,.2.05c.07,0,.2,0,.24.07a.18.18,0,0,0,.16.1h.18a.31.31,0,0,1,.16,0,3.51,3.51,0,0,1,.41.32l0,0c.05.05.12.11.16.11h0c.08,0,.21,0,.22.14a.86.86,0,0,0,.15.32.85.85,0,0,1,.13.43.54.54,0,0,0,.11.28.18.18,0,0,1,0,.15.17.17,0,0,1-.1.1.35.35,0,0,0-.21.27c0,.16-.25.28-.41.37l0,0-.09.05a2.8,2.8,0,0,1-1.15.49h-.09c-.17,0-.34-.09-.51-.14a2.29,2.29,0,0,0-.51-.12h-.1a2.64,2.64,0,0,1-1.24-.27.9.9,0,0,0-.5-.23h-.09a.13.13,0,0,1-.13-.12.3.3,0,0,1,0-.06c0-.08,0-.13-.15-.13h-.07a.47.47,0,0,1-.21,0l0,0a.82.82,0,0,0-.28-.07h-.11a1.55,1.55,0,0,0-.31.08h0c.09,0,.14.06.15.11a.11.11,0,0,1,0,.09h0s.48.18.48.3,0,0-.07.06a.48.48,0,0,0-.26.14h0a1.29,1.29,0,0,1,.62.21,1.4,1.4,0,0,0,.37.27.37.37,0,0,1,.17.24.18.18,0,0,1,0,.18c-.08.08,0,.22,0,.29v0s0,.07-.13.13l0,0s0,0,0,.05a1,1,0,0,1,.16.4.55.55,0,0,0,.05.21l0,.06c0,.07.09.16,0,.22a.91.91,0,0,0,.21.48.63.63,0,0,0,.36.14h.1a.14.14,0,0,1,.14.11h0a.23.23,0,0,1,.07.14s0,.12.07.12h0l.12,0s.07,0,.07,0a.11.11,0,0,1,0,0s0,0,.1,0h.16a.08.08,0,0,1,.08,0,.15.15,0,0,0,.15.11h0l.29,0a.23.23,0,0,0,.15-.06.22.22,0,0,0,.05-.17.47.47,0,0,1,.07-.24.05.05,0,0,0,0-.05s0,0-.13,0a.16.16,0,0,1-.12-.05.18.18,0,0,1,0-.13.09.09,0,0,0,0-.06h0a.22.22,0,0,0-.11.05.21.21,0,0,1-.12,0c-.16,0-.19-.25-.19-.26s0-.13-.22-.27-.12-.16-.11-.21a.28.28,0,0,1,.19-.18s.05-.09.06-.17,0-.12.1-.12.08,0,.12.09a.69.69,0,0,0,.54.27h0a.15.15,0,0,1,.13.06.27.27,0,0,1,0,.22.06.06,0,0,0,0,0h0a.29.29,0,0,0,.12,0,.55.55,0,0,1,.25-.06.53.53,0,0,1,.36.15.65.65,0,0,0,.37.2.14.14,0,0,0,.13-.09.89.89,0,0,0,.07-.17c0-.07,0-.11.14-.11h.09c.12,0,.2,0,.23-.08s0-.12-.09-.21a1.77,1.77,0,0,0-.21-.19c-.21-.16-.43-.34-.2-.71h0a.23.23,0,0,1,.17-.12.36.36,0,0,0,.27-.24c.06-.16.29-.23.33-.24a2.1,2.1,0,0,0,.66-.6.35.35,0,0,1,.27-.19.33.33,0,0,1,.25.15.19.19,0,0,0,.11,0,.58.58,0,0,0,.19,0l.11,0a.18.18,0,0,1,.18.11.24.24,0,0,1-.06.26.15.15,0,0,0,0,.16s0,0,0,0,0,0,0,0,.11-.16.18-.16.12,0,.15.22a.32.32,0,0,0,0,.12.31.31,0,0,0,0-.21,1.41,1.41,0,0,1,.12-.85.32.32,0,0,0,0-.34,1,1,0,0,1-.13-.27.2.2,0,0,0-.15-.06.18.18,0,0,1-.15-.06.25.25,0,0,1,0-.23,1.36,1.36,0,0,1,.05-.15.44.44,0,0,0,0-.2c0-.22,0-.31.1-.36a.18.18,0,0,0,.08-.12.08.08,0,0,0,0-.07.45.45,0,0,1-.08-.36v0c0-.07.06-.2-.19-.32s-.48-.27-.46-.38,0-.06.12-.06h.12a1.55,1.55,0,0,0,.62.18.36.36,0,0,0,.28-.1.25.25,0,0,1,.18-.06.41.41,0,0,1,.25.1.62.62,0,0,0,.24.15l.07,0c.09.05.09.19.08.22a.19.19,0,0,0,.19.14h0a.14.14,0,0,1,.12,0,.21.21,0,0,1,0,.18v.07c0,.06.07.13.1.16s.12.11.1.17,0,0-.09,0l-.17,0a.25.25,0,0,0-.1,0,.32.32,0,0,0-.18.06.61.61,0,0,1-.19.08c-.12,0-.21.06-.22.21a.33.33,0,0,1-.11.22c-.06.06-.08.09,0,.21a1.45,1.45,0,0,0,.2.19.51.51,0,0,1,.22.36.24.24,0,0,0,.26.21h0a1.23,1.23,0,0,1,.21,0c.08,0,.12,0,.14,0a.13.13,0,0,0,.1,0,.13.13,0,0,0,.12-.07.15.15,0,0,1,.13-.06h.18a.12.12,0,0,0,.1,0,.15.15,0,0,0,0-.12c0-.32,0-.43.11-.5a.36.36,0,0,0,0-.35.15.15,0,0,1,0-.16c.06-.09.22-.1.29-.1h.2c.15,0,.18,0,.18,0s0,0,0-.09-.12-.18-.1-.23a.11.11,0,0,1,.11-.06.44.44,0,0,1,.16,0,.49.49,0,0,0,.18,0,.74.74,0,0,0,.51-.26,1,1,0,0,1,.62-.37h.05a.47.47,0,0,0,.39-.19.33.33,0,0,1,.24-.08h.11a.2.2,0,0,1,.15,0,.13.13,0,0,1,0,.11c0,.07,0,.08,0,.08h0l.07,0,.06,0s.07,0,.07,0,0,0-.07-.07-.18-.17-.16-.24,0-.08.13-.1a.61.61,0,0,0,.41-.21.74.74,0,0,1,.46-.3h0c.05,0,.12,0,.13.05s0,.08-.08.11l-.09,0s-.09,0-.09.06,0,0,0,.06.09.16.07.21h0a.44.44,0,0,0,.1.22.16.16,0,0,1-.07.26.62.62,0,0,0-.23.12h.08c.13,0,.22,0,.25.09s0,0,.06,0a.14.14,0,0,0,.09,0,.19.19,0,0,1,.13,0,.14.14,0,0,1,.13.08.19.19,0,0,0,.14.09h0a.12.12,0,0,0,0-.09c0-.13-.06-.55.27-.62l.14,0c.08,0,.08,0,.13-.05l0,0a.49.49,0,0,1,.27-.07.32.32,0,0,1,.25.09s0,0,.13,0a1,1,0,0,0,.51-.13c.06-.08.65-.58.87-.58a.09.09,0,0,1,.1.1.17.17,0,0,0,.11.11.3.3,0,0,1,.17.27.08.08,0,0,1-.08.08.13.13,0,0,0-.1,0,.14.14,0,0,0,0,.12l0,.07a.27.27,0,0,1,0,.09v.06s0,.05.08.05a.32.32,0,0,0,.22-.09l0,0c.05-.06.08-.08,0-.2s0-.14,0-.18.07,0,.14,0H41a.19.19,0,0,0,.19-.09l.05-.06c.08-.08.18-.18.18-.29s0,0,0-.06,0-.11,0-.13l-.06,0c-.15,0-.19,0-.2-.19a.44.44,0,0,0-.09-.28A.37.37,0,0,1,41,152a.19.19,0,0,1,.12-.13c.11,0,.12-.07.12-.07a.05.05,0,0,1,0,0h0s0-.14.12-.14l.09,0a2.26,2.26,0,0,0,.85.16h0a2.47,2.47,0,0,1,1.26.33,1.38,1.38,0,0,0,.59.25l.19,0a.7.7,0,0,1,.28.17.47.47,0,0,0,.2.12l.15,0c.17,0,.33.05.36.16s.16.09.24.1l.09,0h0a.51.51,0,0,1,.24.22.31.31,0,0,0,.16.17s.27.15.27.3a.26.26,0,0,0,0,.12s.05.06.06.06,0,0,.06-.17.05-.24.09-.28.07-.08.09-.29a.73.73,0,0,0,0-.22.25.25,0,0,1,0-.21.07.07,0,0,0,0-.06H46.5a.5.5,0,0,1-.44-.24l-.1-.15a.27.27,0,0,1-.07-.19c0-.1,0-.1-.07-.1h-.15a.31.31,0,0,1-.24-.14.22.22,0,0,0-.17-.09.15.15,0,0,0-.14.08s-.05.16-.13.16-.09-.07-.09-.25a1.68,1.68,0,0,1,0-.21.34.34,0,0,0,0-.08c0-.08,0-.19.09-.21h.06a.19.19,0,0,0,.14-.06.42.42,0,0,0,0-.32.77.77,0,0,1-.07-.51c.06-.23.05-.31,0-.34a0,0,0,0,0,0,0l-.1,0-.09,0a.64.64,0,0,1-.21.09.05.05,0,0,1,0,0s0-.09.12-.28.09-.19.09-.19h0l-.1,0h-.13a.07.07,0,0,1-.07,0s0-.09.14-.26l.09-.1a2,2,0,0,0,.65-1.64c-.07-.94,0-1,.16-1.12a.27.27,0,0,1,.13,0,.09.09,0,0,1,.09.05.12.12,0,0,1,0,.13l0,0h.05a5.7,5.7,0,0,1,.88-.07.89.89,0,0,1,.51.09c.06.05.08.06.08.06v0s0-.06,0-.06h0a.48.48,0,0,1,.16,0,.17.17,0,0,1,.13.05.31.31,0,0,1,.05.24c0,.17.05.19.14.22a.22.22,0,0,1,.18.27.74.74,0,0,0,0,.34.54.54,0,0,1,0,.43.69.69,0,0,0-.06.37.36.36,0,0,1,0,.22.21.21,0,0,0,0,.17.19.19,0,0,0,.1.11l0,0a.33.33,0,0,1,.26.27.38.38,0,0,0,.16.27h0a.5.5,0,0,1,.14.42,1.27,1.27,0,0,0,.06.67.54.54,0,0,1,.14.39.8.8,0,0,0,.08.48.51.51,0,0,1,.13.42.33.33,0,0,0,.11.32.78.78,0,0,1,.24.33s0,0,.11.07h.07c.15,0,.38,0,.46.2s.13.26,0,.36-.19.41-.1.49l.06,0c.08.05.13.09.11.31a.22.22,0,0,1-.18.21c-.07,0-.11,0-.1.13s0,.3-.06.36a.16.16,0,0,1-.12,0s-.07,0-.08,0,0,.06,0,.09a.07.07,0,0,1,0,.05s0,.07-.07.11-.13.12-.11.22a.18.18,0,0,1,0,.15.12.12,0,0,1-.09,0,.28.28,0,0,1-.13,0h-.06l0,0s0,0,.09.16.18.22.16.26-.08,0-.16.05h0c-.09,0-.2,0-.24.06a.11.11,0,0,0,0,.1.09.09,0,0,1,0,.08.06.06,0,0,1-.05,0l-.12,0a.47.47,0,0,0-.14,0s0,0,0,0a.09.09,0,0,1-.07,0s-.08,0-.1-.1a.17.17,0,0,1,0-.19c.06,0,.1-.14.08-.16h0a.24.24,0,0,0-.13.06.38.38,0,0,1-.19.07.19.19,0,0,1-.14-.06.28.28,0,0,1-.08-.2h0a.22.22,0,0,0-.14.11c0,.06-.11.09-.36.09h-.06a2.56,2.56,0,0,0-.43.12h.12a.5.5,0,0,1,.41.22.29.29,0,0,0,.26.14H48a.42.42,0,0,1,.3.16.12.12,0,0,0,.11,0l.16,0,.16,0a.81.81,0,0,0,.38-.11.53.53,0,0,1,.28-.05c.07,0,.25,0,.31.08a.23.23,0,0,0,.17.08.15.15,0,0,0,.14-.08.93.93,0,0,1,.1-.14s.08-.1.07-.11,0,0-.06,0H50c-.09,0-.12,0-.13,0s0-.06.09-.11l0,0,.1-.09s.06-.05.15-.06.15-.15.18-.23a.19.19,0,0,1,.14-.12h0l0,0c.09-.05.32-.19.27-.41s0-.42.08-.46h0a.5.5,0,0,0,.09-.74,3.43,3.43,0,0,0-.26-.35.42.42,0,0,1-.14-.39c0-.31.05-.42.42-.44a2.07,2.07,0,0,0,.67-.18h0l.12,0a.3.3,0,0,1,.23.13,1.54,1.54,0,0,0,.4.33.43.43,0,0,1,.19.41c0,.18,0,.72.16.86l.14.1a.7.7,0,0,1,.2.17.08.08,0,0,0,.07,0h.74s0-.06,0-.08,0,0-.15,0H53.7a.39.39,0,0,1-.4-.18l-.11-.15c-.11-.15-.24-.32-.22-.45a.19.19,0,0,1,.09-.13h0c.12-.08.19-.13.19-.17s0-.06-.09-.12a.65.65,0,0,1-.29-.48.33.33,0,0,0-.35-.27h-.19a.6.6,0,0,1-.42-.17.64.64,0,0,0-.4-.1,1.36,1.36,0,0,0-.66.15c-.09.08-.15.11-.2.11a.17.17,0,0,1-.1,0,.59.59,0,0,0-.29-.07h-.11a.16.16,0,0,1-.13-.07.22.22,0,0,1,0-.2.38.38,0,0,0-.06-.35.58.58,0,0,1-.17-.33.18.18,0,0,1,.06-.14c.12-.12.08-.23,0-.36a.47.47,0,0,1-.06-.29h0s0,0,0,0a.42.42,0,0,0-.1-.38,1.65,1.65,0,0,1-.39-.69A.56.56,0,0,0,49,149a.65.65,0,0,1-.16-.56.87.87,0,0,0,0-.16c0-.13,0-.26.16-.33s.38-.16.44-.32a.23.23,0,0,0,0-.19l-.09-.17c0-.07,0-.08,0-.14v0c0-.15,0-.24-.06-.29a.27.27,0,0,1-.07-.26.11.11,0,0,1,.11-.09.34.34,0,0,1,.2.09h0a.72.72,0,0,0,0,.14l.06,0c.08,0,.19.11.17.26a.21.21,0,0,0,.12.23h0s.05.13.06.19a.52.52,0,0,1-.09.38.29.29,0,0,0-.1.19.22.22,0,0,0,.07.16h0c.13.14.3.31.2.5,0,0-.05.12,0,.14s.1,0,.13,0h.09l.54,0a.78.78,0,0,1,.24.07l.11,0a.07.07,0,0,0,.07,0c0-.06.16-.1.27-.1a.3.3,0,0,1,.14,0l.08.05a1,1,0,0,0,.41.2.29.29,0,0,1,.2.06l0,0h0a.31.31,0,0,0,.15,0h0a.42.42,0,0,0-.12-.08,1.62,1.62,0,0,0-.28-.1c-.17,0-.3-.08-.35-.28s-.06-.11-.07-.11l-.08,0a.39.39,0,0,1-.16,0h-.16c-.07,0-.13,0-.28-.13s-.61-.45-.64-.69a.21.21,0,0,1,0-.17.32.32,0,0,1,.24-.14.33.33,0,0,1,.21.09h0l0,0c.1.09.36.34.51.34l.06,0a.27.27,0,0,0,0-.18.3.3,0,0,0,0-.2.14.14,0,0,0-.11,0c-.15,0-.26-.06-.27-.13s0-.09.12-.12a.39.39,0,0,0,.26-.17.41.41,0,0,1,.34-.14H52a.45.45,0,0,1,.36.12.3.3,0,0,0,.23.11h0a.25.25,0,0,1,.23.13l0,.08c0,.05,0,.06.13.06a.55.55,0,0,1,.34.12l0,0,.07,0a.66.66,0,0,0,.39.15.65.65,0,0,0,.2,0,1.2,1.2,0,0,1,.38-.07c.23,0,.28.12.29.19s0,.17,0,.19h0s0,0,0,.09-.07.22-.13.25h-.08c-.05,0-.15,0-.16,0s0,0,.05.12l0,.06c.14.18.15.19.15.27v0a.72.72,0,0,0,.17.34s0,0,0-.05,0-.19.08-.19,0,0,.08,0l.07.06a.85.85,0,0,0,.32.13h0a.15.15,0,0,1,.16.14.43.43,0,0,0,.06.11c.06.09.12.19.08.27a.08.08,0,0,1-.07,0h-.11s0,0,0,.11c0,.28,0,.41.29.42s.26.09.28.16v0l0,0a.3.3,0,0,0,.3.16h.07s.08,0,.13.1.13.14.18.14,0,0,.05-.09,0-.12-.17-.16a.61.61,0,0,1-.26-.14l-.17-.19c-.08-.11-.16-.2-.23-.21s-.22,0-.23-.12.08-.11.15-.13a.09.09,0,0,0,.06-.06c0-.13-.18-.37-.26-.45a1,1,0,0,1-.12-.24.49.49,0,0,0-.24-.26.33.33,0,0,1-.21-.38c0-.18,0-.22,0-.24l0,0v0c0-.06-.1-.2,0-.28a.17.17,0,0,0,.06-.13.1.1,0,0,0-.06-.07l-.07,0c-.09,0-.18-.09-.19-.19a.48.48,0,0,1,0-.06.11.11,0,0,0,0,0h-.28c-.32,0-.72-.15-.8-.39s-.13-.23-.34-.23-.56,0-.6-.38-.06-.29-.11-.31l0,0h0c-.09-.07-.31-.24-.28-.46s0-.19,0-.2h0v0a.68.68,0,0,1,.08-.48.32.32,0,0,1,.25-.12h.42l.41,0a1.57,1.57,0,0,0,.61-.1,1.28,1.28,0,0,1,.46-.15l.15,0,.08,0,.15,0s.06,0,.09,0l.09-.07a.56.56,0,0,1,.38-.12h.22l.24,0c.12,0,.13,0,.13,0s0,0-.13-.14a1.06,1.06,0,0,1-.3-.3s0,0-.14-.06-.43-.17-.42-.26,0-.06.1-.06h.08l.21,0a.4.4,0,0,0,.22,0,.37.37,0,0,0-.14-.06,2.17,2.17,0,0,1-.38-.15.54.54,0,0,0-.22-.08.22.22,0,0,1-.21-.14.17.17,0,0,1,.06-.19.13.13,0,0,1,.08,0s.06,0,.08.06a.13.13,0,0,0,0,.05.36.36,0,0,1,.1.09c0,.05.1.11.14.11l0,0c.06,0,.06-.07.05-.09a.08.08,0,0,1,0-.09s0,0,0-.09a.62.62,0,0,1,0-.09.4.4,0,0,0,0-.07c0-.05,0-.07.08-.09s.06,0,.06-.06,0,0-.06,0-.25,0-.26-.11.07-.09.13-.12l.11,0,.12,0s.05,0,.06.05h0v0l.05-.07a.94.94,0,0,0,.06-.17.7.7,0,0,1,.22-.4.57.57,0,0,1,.26-.06c.12,0,.22,0,.27-.1s.15-.15.2-.16h0l0,0a.15.15,0,0,1,.15-.09h.19s.07,0,.09-.08.06-.12.12-.12l.09,0h.08l.15,0a.5.5,0,0,0,.19,0,.92.92,0,0,1,.34,0h.22c.14-.09.15-.13.15-.13h0s0,0-.1,0h-.2a.43.43,0,0,1-.32-.1.18.18,0,0,1,0-.15,1.52,1.52,0,0,0,0-.22c0-.08,0-.13.06-.13s0,0,.08,0l0,0c.08.07.17.16.24.16a.08.08,0,0,0,.06,0,.13.13,0,0,1,.09-.05l.06,0h.1l.07,0a.47.47,0,0,1,.22-.07l.14,0,.21.08a1,1,0,0,0,.33.1h0a.2.2,0,0,1,.2.16.11.11,0,0,0,.09.06h0a.58.58,0,0,1,.16,0,.09.09,0,0,1,.08,0,.07.07,0,0,1,0,.05.06.06,0,0,0,0,0h0s0,0,.05,0,.16-.2.24-.2l.06,0,.07,0a.22.22,0,0,0,.16-.06,0,0,0,0,0,0,0,.16.16,0,0,1,0-.15.19.19,0,0,1,.15-.06.58.58,0,0,0,.37-.16.14.14,0,0,1,.11-.07c.08,0,.16.08.24.16a.25.25,0,0,0,.16.08h0s0,0-.06-.12a.65.65,0,0,0-.45-.23H61.4a.26.26,0,0,1-.13-.23.08.08,0,0,1,.09-.07h.07a.67.67,0,0,0,.21.06h.17a.33.33,0,0,0,.22-.06.18.18,0,0,1,.11,0,.21.21,0,0,1,.13.06l0,0,.51,0h.13c.08,0,.29,0,.3-.06s0,0,0,0H63a.41.41,0,0,1-.16-.06.51.51,0,0,0-.2-.07h-.2a.23.23,0,0,1-.23-.11.57.57,0,0,0-.22-.23h0a1.12,1.12,0,0,1,0-.78,2.65,2.65,0,0,1,.67-.67l.2-.24a.27.27,0,0,1,.23-.12h.05a1.21,1.21,0,0,1,.59.18.61.61,0,0,0,.17,0l.12,0,.11,0a.22.22,0,0,1,.18.11l.06.06c.07.07.17.17.16.26a.14.14,0,0,1-.07.1,1.57,1.57,0,0,1-.4.19c-.12,0-.25.09-.26.13l0,0a.2.2,0,0,0,.1,0,.27.27,0,0,0,.16-.06l0,0h0a1,1,0,0,1,.36-.11.16.16,0,0,1,.18.13.77.77,0,0,0,0,.16l0,0a.25.25,0,0,1,.18-.09.21.21,0,0,1,.13,0,.22.22,0,0,0,.1.06s0,0,0,0a.21.21,0,0,1,0-.16.06.06,0,0,1,.05,0,.13.13,0,0,1,.08,0h0c.1.08.28.21.27.33a.21.21,0,0,0,0,.17.24.24,0,0,1,0,.2.08.08,0,0,1-.08,0l-.07,0a.36.36,0,0,0-.15,0h0l.11.06a.72.72,0,0,0,.24.07.05.05,0,0,0,0,0l0,0a.61.61,0,0,1,.29-.06h.1a.26.26,0,0,0,.22-.08.1.1,0,0,0,0-.1c-.11-.16-.14-.27-.11-.34a.14.14,0,0,1,.13-.08l.22,0,.28,0H67l.21,0a.46.46,0,0,0,.21,0,.47.47,0,0,1,.18-.05.14.14,0,0,1,.09,0l0,0h0l.09,0,.08,0a.33.33,0,0,1,.14,0,.25.25,0,0,1,.17.06.21.21,0,0,0,.13,0l.13,0a1.27,1.27,0,0,1,.41.22.33.33,0,0,0,.15.06c.08,0,.16,0,.19.1a.83.83,0,0,0,.11.14.76.76,0,0,1,.19.3.19.19,0,0,0,0,.08.21.21,0,0,0,0-.07s0-.07,0-.11,0-.28,0-.32l0,0s.06,0,.1.08a3.23,3.23,0,0,0,.76.76c.09,0,.12.11.12.15a.09.09,0,0,1-.1.07.35.35,0,0,1-.19-.08.29.29,0,0,0-.18-.08H70a.39.39,0,0,1-.18-.06.37.37,0,0,0-.15-.06h0a.14.14,0,0,0,0,.07l.07.08a.3.3,0,0,1,.1.16.42.42,0,0,0,0,.12v0h0c0-.09.07-.15.13-.15a.17.17,0,0,1,.1,0l.08.06a.35.35,0,0,0,.13.08s.12.08.26.31l0,0a.49.49,0,0,1,0,.38l-.15.19a4,4,0,0,0-.5.7c0,.09-.18.19-.41.33a1.78,1.78,0,0,0-.27.19h.12c.13,0,.2,0,.21.07s-.14.16-.17.18a.42.42,0,0,0-.18.36.34.34,0,0,1-.18.33l0,0a1.22,1.22,0,0,0-.6.62,1.38,1.38,0,0,1-.14.36.22.22,0,0,0,0,.1c0,.06-.1.15-.26.29a1.49,1.49,0,0,0-.38.43,2.38,2.38,0,0,0,.22-.18,2.14,2.14,0,0,1,.54-.39c.13,0,.12-.09.11-.15a.14.14,0,0,1,0-.11.19.19,0,0,1,.14-.06l.2,0a.64.64,0,0,0,.34-.08.39.39,0,0,1,.26-.11h.13l.09,0s.07,0,.08-.16.06-.18.14-.2a.16.16,0,0,0,.11-.1.19.19,0,0,0,0-.15.05.05,0,0,1,0,0l0,0h.06l.12,0v-.06c0-.1,0-.22.14-.26a.31.31,0,0,0,.16-.13l-.06,0a.55.55,0,0,1-.17,0,.55.55,0,0,0-.24.11.34.34,0,0,1-.18.06.17.17,0,0,1-.16-.1.2.2,0,0,1,0-.22s0-.08,0-.15,0-.09,0-.13a.09.09,0,0,1,.08,0h.07a1.07,1.07,0,0,1,.26.08.45.45,0,0,0,.14,0s0,0,.08-.05.07-.11.11-.11.06,0,.1.1l0,.06h0c.08.13.16.25.25.25h0l.22,0a2.45,2.45,0,0,0,.4.05c.11,0,.14,0,.15,0s0-.07,0-.1-.19-.4-.13-.49a.05.05,0,0,1,0,0s.07,0,.16.11a1.62,1.62,0,0,1,.19.23.24.24,0,0,0,.13.12l.05,0c.06,0,.08,0,.07.09a.11.11,0,0,0,0,0,.54.54,0,0,0,.09.16c.07.11.14.22.1.29a.07.07,0,0,0,0,.06.14.14,0,0,0,.08.07l.19.12.2.13,0-.05-.08-.08a.18.18,0,0,1,0-.29h0l0,0s.06-.05.06-.07h0s0,0-.1,0-.23-.11-.24-.18.06-.15.16-.18a.84.84,0,0,1,.21,0,.64.64,0,0,0,.4-.11,1.17,1.17,0,0,1,.69-.15h.29c.4,0,.48-.06.55-.1a.29.29,0,0,1,.13,0s.8,0,.81.16,0,.08-.19.11-.1,0-.13.06,0,.12.07.21.13.17.26.17a2.75,2.75,0,0,1,.59.08,4.3,4.3,0,0,0,.9.12.74.74,0,0,0,.27,0,2.24,2.24,0,0,1,.8-.14.36.36,0,0,0,.28-.08.34.34,0,0,1,.25-.08H79s-.19-.19-.24-.21-.1-.09-.1-.23,0-.09-.06-.09h0a.35.35,0,0,1-.23-.18l0-.06c-.09-.13-.12-.2-.1-.23a0,0,0,0,1,0,0s.06,0,.17.08a.2.2,0,0,0,.09,0s0-.07,0-.16,0-.25.13-.26h0a.63.63,0,0,1,.5.19.19.19,0,0,0,.2.12h.07c.14,0,.32,0,.36.11s.06.08.09.08.06,0,.07-.12.11-.16.15-.16a.31.31,0,0,1,.22.14v0s0,0,.08-.16,0-.11.09-.11h.12l.21,0c.2,0,.33.06.37.19s0,.09.07.09.11-.08.14-.11l0,0,0,0s.11.05.21.13l.09.07.09,0a.19.19,0,0,1,.14.11c0,.06.07.13.1.13s0,0,0,0,.13-.18.22-.18a.08.08,0,0,1,.06,0s0,.13,0,.27,0,.35,0,.39.07,0,.16,0,.35,0,.36.1-.05.07-.14.09a.32.32,0,0,0-.15.06l.07,0h.1c.1,0,.18,0,.19.06s0,.07-.13.13l-.05,0h.48c.06,0,.13,0,.14.05s0,.1-.17.18a.64.64,0,0,1-.34.09l-.21,0h-.07l.08.1a.44.44,0,0,0,.34.18,1,1,0,0,0,.26,0l.22-.05h.13c.09,0,.1,0,.12.08a.19.19,0,0,0,.06.11h0c.09.08.13.13.13.18s-.05.08-.12.11l-.1,0-.1,0,.13,0c.25.05.27.07.35.16l.06.06a.59.59,0,0,0,.26.11c.12,0,.25.06.23.17a0,0,0,0,0,0,0s.11,0,.14,0h.19a.8.8,0,0,1,.25.11,1,1,0,0,0,.33.14h0c0-.06.08-.1.13-.1s.09,0,.15.12a.37.37,0,0,0,.26.15c.08,0,.12-.06.12-.19s0-.21,0-.27a.41.41,0,0,0,0-.22s0,0-.06,0-.13,0-.15-.18a1.11,1.11,0,0,0-.19-.52c-.05-.07-.15-.28-.12-.35a0,0,0,0,1,0,0s.08,0,.22.19a1,1,0,0,0,.72.37l.16,0,.3,0c.33,0,.51-.05.51-.08h0a.14.14,0,0,1,0-.15.18.18,0,0,1,.16-.07h0a.88.88,0,0,0,.35-.11.59.59,0,0,1,.27-.07,1.08,1.08,0,0,1,.42.11l.38.16a4.44,4.44,0,0,1,.66.3.44.44,0,0,0,.21.08h0s0,0,0-.05l0-.07c0-.07,0-.09,0-.14s.08-.09.08-.1,0,0-.08,0S90,144.15,90,144s0-.1.1-.15l.1-.05a.59.59,0,0,1,.25-.09.18.18,0,0,1,.13.06l.07.08c.07.08.14.16.2.16a.08.08,0,0,0,.06,0c.11-.13.15-.17.22-.17h0a.15.15,0,0,0,.1-.1s0,0-.07-.06l-.06,0c-.23-.07-.54-.16-.56-.35s0-.11-.09-.12h-.17a.11.11,0,0,1-.09,0s0-.08,0-.16a.29.29,0,0,0,0-.15s0-.06.06-.13.08-.16.07-.17l-.06,0a.33.33,0,0,1-.2.07.24.24,0,0,0-.18.08.41.41,0,0,1-.25.12.12.12,0,0,1-.11,0c0-.05,0-.13,0-.24.12-.3.26-.3.39-.3h.11c.12,0,.16,0,.2-.08s0-.09,0-.11-.05-.06-.13-.09-.33-.23-.31-.34,0-.06.11-.06l.11,0a1.16,1.16,0,0,1,.28.1.57.57,0,0,0,.28.06l3.2.1c.31,0,.32.07.32.09s0,.07-.25.12a1.52,1.52,0,0,1-.33,0h-.27c-.07,0-.11,0-.16.13l0,.13.06,0,.14-.06a3.89,3.89,0,0,1,.87-.18c.12,0,.18,0,.2.09a.87.87,0,0,1,0,.52.06.06,0,0,1,0,0s-.06,0-.07-.08a.88.88,0,0,0-.14-.28.33.33,0,0,0,0,.11.29.29,0,0,0,.08.25s0,0,0,.06,0,0-.1,0-.14,0-.15,0h0l.05,0c.13.09.08.19.06.22a.08.08,0,0,0,0,0h0c.06-.07.07-.08.16-.08h.15s0,0,0-.09v0c0-.18,0-.32.08-.39s.17-.15.08-.34-.15-.35-.09-.45a.13.13,0,0,1,.11-.06h.08a.54.54,0,0,0,.35-.12.62.62,0,0,1,.33-.07,2.68,2.68,0,0,1,.52.06,2,2,0,0,1,1.07.54s.1.11.08.16,0,0-.05,0l-.13,0a.48.48,0,0,0-.16,0l-.05,0s0,.06,0,.11a.29.29,0,0,1,0,.12s0,.08,0,.1h0l.11,0a1.69,1.69,0,0,1,.44-.08c.12,0,.2,0,.22.11s0,.1.07.1l0,0a.34.34,0,0,1,.19-.05.21.21,0,0,1,.16.06.2.2,0,0,1,0,.16.15.15,0,0,0,0,0s.14-.13.17-.18l.06-.06h0a.18.18,0,0,1,.1,0,.41.41,0,0,1,.2.07.56.56,0,0,0,.29.08l.18,0c.12,0,.49.18.5.34s0,.11-.12.15l0,0h.52a.59.59,0,0,0,.23-.13.63.63,0,0,1,.3-.13l.11,0c.13,0,1.31-.45,1.62-.57a.7.7,0,0,1,.27,0,2,2,0,0,1,.31,0,1.69,1.69,0,0,0,.28,0h.05l.52,0a2,2,0,0,1,1.4.36c.15.18.24.19.32.19h.07c.12,0,.22,0,.37.29a.74.74,0,0,1,.18.39c0,.16.28.3.47.35l.18.05a1,1,0,0,0,.28.07h0l.08,0,.18,0a.28.28,0,0,1,.22.1c.09.11.14.12.16.12s.05,0,.06-.09a.23.23,0,0,1,.25-.2H108s.05,0,.05-.11,0-.06,0-.08h0s.09-.13.35-.13h.15c.12,0,.15,0,.17-.05s.07-.07.19-.07h0a.26.26,0,0,0,.21-.09.17.17,0,0,1,.11-.06.23.23,0,0,1,.14.07.26.26,0,0,0,.18.06,1,1,0,0,0,.26-.05,1.65,1.65,0,0,1,.39-.08h.61c.22,0,.47,0,.53-.17s.12-.22.23-.22a1,1,0,0,1,.27.07l.1,0a.72.72,0,0,1,.34.23c.06.07.11.12.19.12h.06a1.46,1.46,0,0,1,.41.08l.11,0h.09a.3.3,0,0,0,.12,0l.13,0h0a.33.33,0,0,1,.34.3c0,.1,0,.1,0,.1H114l.14,0,.25,0h.2c.1,0,.17,0,.19-.07s0-.08-.06-.13-.18-.25-.17-.3v0s0-.07-.14-.13a2.29,2.29,0,0,1-.67-.43.13.13,0,0,0-.12-.06.16.16,0,0,0-.13.06.18.18,0,0,1-.13.08.08.08,0,0,1-.07,0,.32.32,0,0,1,0-.24c0-.27,0-.29-.09-.36l0,0c-.05,0-.39-.36-.35-.48a.07.07,0,0,1,.08,0h.06l.15,0a1.08,1.08,0,0,0,.29,0h.1a.59.59,0,0,1,.25.06.82.82,0,0,0,.19.05l.12,0,.13,0a.12.12,0,0,0,.11-.06.19.19,0,0,1,.17-.09.55.55,0,0,1,.32.14.77.77,0,0,0,.36.12l0,0c-.15-.07-.17-.15-.16-.2s.13-.13.27-.13h0a7.06,7.06,0,0,0,1.25-.22,1,1,0,0,1,.31-.05,1.47,1.47,0,0,1,.43.08l.08,0a.8.8,0,0,0,.29.06h.12a.41.41,0,0,1,.25.09.39.39,0,0,0,.21.08h.83c.46,0,.54,0,.56.09a.07.07,0,0,1,0,.08s0,0,0,0h0s0,0,.14,0l.31,0h.05a.79.79,0,0,1,.41.21.34.34,0,0,0,.25.07,2.24,2.24,0,0,0,.35,0l.16,0h0a5.6,5.6,0,0,1,1.59.42,3.29,3.29,0,0,0,1,.3c.06,0,.08,0,.08,0h0a.2.2,0,0,1,.15-.07h.15c.17,0,.4.05.49.18a.21.21,0,0,0,.13.1h0a0,0,0,0,0,0,0c0-.06,0-.1,0-.12l0,0,.1,0c.05,0,.33.15.36.3a.49.49,0,0,1,0,.07s0,0,.12.07a1,1,0,0,0,.29,0c.07,0,.1,0,.1,0s0,0,0,0-.12-.19-.11-.21a.05.05,0,0,1,0,0l.11,0a.5.5,0,0,0,.19,0,.27.27,0,0,1,.25.11c.06.12.36.43.51.43a.06.06,0,0,0,.06,0,.16.16,0,0,1,.14-.1c.11,0,.22.12.29.2l0,0,.06.07a4.24,4.24,0,0,0,.56.53.25.25,0,0,1,.11.23c0,.08,0,.09,0,.09h.1a1.32,1.32,0,0,1,.72.32.16.16,0,0,0,.1.05.06.06,0,0,0,0,0,.13.13,0,0,0,0-.09.15.15,0,0,1,0-.13.06.06,0,0,1,.05,0,.28.28,0,0,1,.15.08l.09.06a.66.66,0,0,0,0-.13l0-.06c0-.15-.06-.22-.3-.23a.43.43,0,0,1-.33-.15l-.06-.06h0a.5.5,0,0,0-.27-.1c-.38-.06-.38-.13-.38-.16s0-.08.27-.11a1.19,1.19,0,0,0,.33-.08.31.31,0,0,1,.16-.06.1.1,0,0,1,.11.11.13.13,0,0,0,.14.13H129c.08,0,.12-.06.12-.07h0l-.05,0c-.11,0-.18-.11-.17-.17s0-.07.12-.07h.09l.14,0,.21,0a.36.36,0,0,0,.14,0,.68.68,0,0,1,.22,0,.85.85,0,0,1,.56.21,1.4,1.4,0,0,0,.75.34h.13c.34,0,1.06.05,1.17.4s.16.35.24.41l.07,0a.33.33,0,0,1,.1.32.12.12,0,0,1-.12.09l-.08,0-.08,0a2.92,2.92,0,0,0-.5-.17,1,1,0,0,0,.17.15c.15.07.47.23.45.34s-.08.08-.22.08h-.16a4.81,4.81,0,0,0-.68-.15l.08.05.11.06c.39.23.47.27.45.38a.17.17,0,0,0,0,.13.13.13,0,0,0,.1,0h0a.25.25,0,0,1,.23.17.17.17,0,0,1-.06.2.34.34,0,0,0-.13.26s0,0,0,0h.06l.15-.08.05,0s0,0,0,.08v0a.36.36,0,0,0,.3.29h0a2,2,0,0,1,.4,0c.23,0,.27,0,.28.07s-.05.09-.08.1l-.09.05c-.12.07-.12.07-.14.11l0,.05c0,.08-.08.17-.17.17h0a.3.3,0,0,1-.18-.09,2.11,2.11,0,0,1-.18-.19,1,1,0,0,0-.12-.13.21.21,0,0,0,0,.05.72.72,0,0,0,.08.24c0,.08.06.13,0,.17a.08.08,0,0,1-.07,0l-.16,0c-.33-.1-.36-.16-.37-.19v0a.49.49,0,0,0-.41-.2h-.09l-.25,0h-.09a.1.1,0,0,1-.08,0,.11.11,0,0,1,0-.08.18.18,0,0,0,0-.05l-.07.05,0,0a.17.17,0,0,1-.11,0,1.34,1.34,0,0,1-.29-.05l-.2,0h0l-.06,0-.14,0a.47.47,0,0,1-.32-.17,2.25,2.25,0,0,0-.85-.59,1,1,0,0,1-.24,0,.71.71,0,0,0-.22,0h-.09c-.14,0-.19,0-.21.13a.14.14,0,0,1-.14.13.29.29,0,0,1-.12,0h0a.25.25,0,0,0-.2.12.17.17,0,0,1-.14.07.48.48,0,0,1-.32-.19c0-.07-.12-.14-.16-.14l0,0a.1.1,0,0,1-.07,0c-.09,0-.15-.12-.16-.14h0a.26.26,0,0,0-.19-.06c-.12,0-.36-.09-.38-.2s0-.09.1-.13.09-.05.09-.05l-.06,0-.06,0,0,0a.49.49,0,0,1-.28-.36c0-.12,0-.14,0-.14a.18.18,0,0,0,0,.12,1.16,1.16,0,0,1-.12.52l0,0s-.08,0-.11-.16-.08-.18-.12-.18a.1.1,0,0,0-.07.06.13.13,0,0,0,0,.11c0,.07.09.16.06.22a.08.08,0,0,1-.07,0h0s0,0,0,0,0,.08.1.12l.11,0a.91.91,0,0,1,.44.28.66.66,0,0,0,.48.16h.06a.46.46,0,0,1,.42.45v.11c0,.38.06.65-.08.74a.32.32,0,0,0-.15.28c0,.09,0,.1-.1.12h0l-.12,0a1.23,1.23,0,0,1-.3.09h-.21a.75.75,0,0,1-.56-.25c-.19-.19-.29-.22-.36-.22l-.13,0-.09,0a.93.93,0,0,0-.35.14h.2l.23,0a.39.39,0,0,1,.31.12c.06.08.14.18.11.24a.07.07,0,0,1-.06,0,.42.42,0,0,1-.17-.06.4.4,0,0,0-.2-.06c-.06,0-.09,0-.1,0s0,0,.07.07c.2.11.26.16.27.27a.18.18,0,0,0,0,.12s0,0,0-.09.05-.2.1-.2l0,0h0l0,0a.2.2,0,0,0,.08,0s0,0,0-.06a.19.19,0,0,1,.19-.18.31.31,0,0,1,.21.1,2.31,2.31,0,0,0,.78.46h0s0,0,0,0,0-.16,0-.2a.07.07,0,0,1,.06,0c.08,0,.17.09.24.16a.47.47,0,0,0,.2.13.21.21,0,0,1,.17.23.1.1,0,0,0,0,0l.05,0a.35.35,0,0,1,.18-.07.25.25,0,0,1,.19.11.68.68,0,0,0,.26.23.1.1,0,0,1,.06.05.24.24,0,0,1,0,.1.28.28,0,0,0,0,.16h.13l.21,0a.31.31,0,0,1,.26.12.7.7,0,0,0,.49.26h0c.2,0,.3.15.39.3l.05.1c0,.08.05.12.24.14s.22.06.24.12a.09.09,0,0,0,0,.05.39.39,0,0,1,.16.23.15.15,0,0,1,0,.12.15.15,0,0,0,0,.19s.17.22.13.31a.07.07,0,0,1-.07,0,.33.33,0,0,1-.14,0l-.2-.1a.61.61,0,0,0-.37-.1h-.08l-.27,0h-.16l-.15,0-.15,0c-.08,0-.1,0-.13-.11h0c0-.08-.15-.22-.22-.22s-.06,0-.07.09,0,.2.1.24.08,0,.09.07l0,0a.17.17,0,0,1-.06.24.38.38,0,0,0-.19.32.7.7,0,0,1-.14.31.69.69,0,0,0-.08.14c0,.06-.08.1-.14.13s-.12.06-.13.11v.05c0,.16-.09.39-.26.44s-.11,0-.13.08a.2.2,0,0,0,0,.15c.05.14.08.47,0,.55a.24.24,0,0,0-.07.29c.06.17,0,.22-.05.3a.44.44,0,0,0-.14.38.57.57,0,0,1,0,.39s0,.08,0,.18h0a.43.43,0,0,1,0,.19.48.48,0,0,0,0,.11.45.45,0,0,0,.12.27.14.14,0,0,1,0,.15.09.09,0,0,1-.08.06.15.15,0,0,1-.11-.06.26.26,0,0,0-.17-.12l-.05,0h-.05c-.08,0-.22,0-.22-.21s0-.06,0-.06h0l-.07,0a.38.38,0,0,1-.15,0,.36.36,0,0,1-.32-.2c0-.05-.09-.13-.17-.13h-.07a.53.53,0,0,1-.15,0,.09.09,0,0,1-.07,0,.1.1,0,0,1,0-.08.06.06,0,0,0,0,0h-.1a.78.78,0,0,1-.24.05h-.12a.35.35,0,0,0-.3.19l-.07.12c-.08.15-.14.24-.3.25a.15.15,0,0,0-.15.09.07.07,0,0,0,0,.09.37.37,0,0,1,.12.37.71.71,0,0,0,0,.32.45.45,0,0,1,0,.31.08.08,0,0,1-.06,0s-.08,0-.12-.15c-.17-.49-.41-1-.54-1s0,0-.05,0a1.69,1.69,0,0,0-.16.27.27.27,0,0,1-.1.13c-.12.08-.2.16-.2.21s0,0,.07.06.22.1.23.16a.13.13,0,0,1-.06.11.35.35,0,0,0-.1.18.12.12,0,0,1,0,.09l0,0s-.1,0-.17-.11l-.14-.14c-.09-.09-.18-.18-.22-.18s0,0,0,0h0c0,.1,0,.14-.07.14s0,0-.06,0l-.06,0a.3.3,0,0,0-.15,0,.19.19,0,0,0-.15.05.07.07,0,0,0,0,.07c.09.15.09.2.08.26v0a.24.24,0,0,0,.14.23.75.75,0,0,1,.16.14.43.43,0,0,0,.14.12c.1.05.09.11.08.16a.18.18,0,0,0,0,.1v0c0,.09,0,.12.11.17s.19.12.18.18-.07.05-.09.06h-.06l0,0a.35.35,0,0,1,0,.26v0c-.12.33-.09.48-.05.55a1,1,0,0,0,.19.23c.09.09.17.16.17.26s0,.26.38.36.25.11.23.2a.09.09,0,0,0,0,.09c0,.06.06.06.06.06a.33.33,0,0,0,0-.11v-.07c0-.11,0-.25.17-.25l.1,0a.71.71,0,0,1,.19.11.11.11,0,0,0,.09,0,.26.26,0,0,1,.21.14.2.2,0,0,1,0,.22c-.07.12,0,.19.06.29a.45.45,0,0,1,.08.15.42.42,0,0,0,0,.1.61.61,0,0,0,.14.11c.1.07.2.14.22.23s.1.2.16.2.07,0,.09-.09.08-.12.12-.12.14.24.15.24a.84.84,0,0,0,.24.4c.08,0,.3.22.29.38a.19.19,0,0,1-.14.15.52.52,0,0,1-.18.05l-.06,0a.14.14,0,0,1,0-.1.4.4,0,0,0,0-.08s0-.05,0-.08,0-.27-.12-.27h0a.88.88,0,0,1-.22,0h-.11l.05,0c.18.14.35.3.28.47a.74.74,0,0,0,0,.62l.17.19a4.66,4.66,0,0,1,.5.61l0,.06c.12.2.14.24.37.27a.28.28,0,0,1,.2.08.14.14,0,0,1,0,.12.11.11,0,0,0,0,0,1.19,1.19,0,0,1,0,.12.93.93,0,0,0,0,.17c0,.08,0,.14-.09.17h0a.31.31,0,0,0-.18.1.12.12,0,0,1-.09,0c-.05,0-.08-.05-.08-.1s0-.08,0-.08,0,0-.06,0-.11.13-.15.13h-.06a.15.15,0,0,0-.13.08.74.74,0,0,0-.11.66,1.82,1.82,0,0,0,.36.43c.16.16.29.29.31.39a.61.61,0,0,0,.22.32l.05.05a.06.06,0,0,1,0,.07s-.06,0-.12,0h-.11a.71.71,0,0,0-.17,0,.12.12,0,0,0-.13.11v.08c0,.16,0,.27-.17.29s-.15.15-.14.23,0,0,0,0h0a.18.18,0,0,1,.16.11.18.18,0,0,0,.07.07l0,0c.06,0,.11.05.12.1s0,.08-.09.11-.06.05-.05.08.09.14.23.17.19.16.19.22a.06.06,0,0,0,0,0,1.91,1.91,0,0,0,.09.51.59.59,0,0,1-.07.53.8.8,0,0,0-.14.63c0,.11.13.38,0,.43h0c-.07,0-.11-.08-.13-.15s-.08-.2-.2-.22a.37.37,0,0,1-.29-.22.29.29,0,0,0-.14-.14l-.11-.08a1.22,1.22,0,0,1-.39-.53c0-.14-.08-.17-.13-.19l-.06,0-.17-.17c-.38-.38-1.17-1.16-1.26-1.3s-.6-.72-.9-1a2.48,2.48,0,0,1-.44-.59l0,0a1.69,1.69,0,0,0-.32-.32,3.66,3.66,0,0,1-.48-.48,5.43,5.43,0,0,0-.43-.48,2.08,2.08,0,0,1-.24-.27l0,0a4.26,4.26,0,0,1-.46-.89,2.32,2.32,0,0,0-.37-.72.9.9,0,0,1-.25-.53.75.75,0,0,0,0-.15c0-.09,0-.19.08-.21s.05,0,.05,0,0,0,0,0h0a3,3,0,0,1-.13-.49c0-.15-.06-.25-.12-.26s-.3-.11-.3-.22,0-.07.1-.09l.17,0c.09,0,.1,0,.11-.13s.11-.24.2-.25h0c.06,0,.16,0,.2-.06a.13.13,0,0,0,0-.11c0-.06,0-.12,0-.19s-.08-.42,0-.48.09,0,.07-.12v0a1.64,1.64,0,0,1,0-.27,2.19,2.19,0,0,0,0-.33.34.34,0,0,0,0-.11c0-.05,0-.08,0-.28s0-.22,0-.32a1.78,1.78,0,0,1,.05-.42.71.71,0,0,0,0-.31,1.66,1.66,0,0,1,0-.2.88.88,0,0,0-.11-.55l0,0c-.1-.08-.2-.17-.12-.44,0-.09,0-.14.05-.17s0-.08.08-.11l0,0a.44.44,0,0,0,.14-.19c0-.07.05-.12.1-.13h0s0,0,.06,0l0,0a.46.46,0,0,1,.13-.12l0,0a.44.44,0,0,0,.14-.1h-.17a.26.26,0,0,1-.19,0,.15.15,0,0,1,0-.11.24.24,0,0,0,0-.06v0c0-.1-.09-.4-.21-.41s-.22,0-.22-.2a.14.14,0,0,0,0-.11.21.21,0,0,1-.07-.12.53.53,0,0,0-.2-.28.29.29,0,0,1-.22-.23v0c0-.09,0-.1,0-.12a.4.4,0,0,1-.13-.27A.17.17,0,0,1,120,154l.12-.07.12-.07h0a1.37,1.37,0,0,1-.26-.07,1.78,1.78,0,0,0-.41-.09.13.13,0,0,0-.09,0,.93.93,0,0,1-.18.12c-.12.07-.27.15-.25.23s.09.2.19.2h.13s.09,0,.11,0,0,.1,0,.12-.08.11,0,.23a1.08,1.08,0,0,1,.13.19.55.55,0,0,0,.09.13,1.49,1.49,0,0,0,.36.18s.08.09.07.15a.12.12,0,0,1-.13.11h-.11a1.25,1.25,0,0,0-.26,0,.15.15,0,0,0-.12,0,.18.18,0,0,0,0,.14c0,.08,0,.16,0,.23a1,1,0,0,1,0,.53.51.51,0,0,0-.06.32v0a.29.29,0,0,1-.08.23h0a.34.34,0,0,0-.06.15c0,.06,0,.1-.08.1s-.09,0-.15-.1-.08-.09-.1-.09l-.07,0a.24.24,0,0,1-.13-.25.14.14,0,0,0,0-.1l0,0s0,0,0,0v0c-.05.08-.13.21-.21.21s-.12-.13-.14-.18-.07-.21-.1-.21h-.08c-.07,0-.15-.1-.15-.27,0,0,0,0,0-.07a1,1,0,0,0,0-.34.26.26,0,0,1-.19-.24c0-.08,0-.08-.08-.08s-.07,0-.07-.05a.45.45,0,0,0-.1-.17.25.25,0,0,0,0,.1c0,.05,0,.1,0,.14s0,.23-.1.27l-.12,0a.09.09,0,0,1-.07,0,.12.12,0,0,1,0-.09.15.15,0,0,0,0-.11.08.08,0,0,0-.06,0H117l-.15,0-.16,0a.17.17,0,0,0-.13.05,1.05,1.05,0,0,1-.28.18.62.62,0,0,0-.21.14c-.05.09-.1.14-.18.14h-.09a.38.38,0,0,0-.25.11.18.18,0,0,0,0,.14c0,.18,0,.43.13.47a.09.09,0,0,1,.06.07c0,.08-.07.16-.11.19h0s-.07.06,0,.25l0,.12a1.14,1.14,0,0,1,0,.59.18.18,0,0,0,0,.21v0a.71.71,0,0,1,0,.36.27.27,0,0,0,0,.29l.07.07c.07.07.15.14.08.25v0s-.05.09,0,.11,0,0,.11.05h0c.2,0,.33.08.33.15s0,.07-.08.09-.12.09-.12.09l0,0a.11.11,0,0,1,.05.07s0,.06.07.06h.1a.27.27,0,0,0,.15,0,0,0,0,0,0,0,0c0-.07,0-.11,0-.13l0,0s0,0,.09.05a1,1,0,0,0,.42.23c.11,0,.17.05.17.1s0,.05-.08.05h-.06v0a.3.3,0,0,1,0,0c0,.09,0,.13-.08.13a.11.11,0,0,1-.08,0,.3.3,0,0,0-.15-.1s0,0,0,0a.4.4,0,0,1-.38.35.36.36,0,0,1-.16,0l-.18-.09,0,0,0,0a.45.45,0,0,1-.18.18.29.29,0,0,0,0,.09c0,.08,0,.17-.12.17h0a.26.26,0,0,1-.13,0,.27.27,0,0,0-.12,0,.05.05,0,0,0,0,0,.21.21,0,0,1-.17.09s-.06,0-.08,0-.07.12-.13.12a.11.11,0,0,1-.08,0l0,0,0,0v0s-.06.1-.12.1-.06,0-.09-.07-.07-.11-.14-.14l0,0c-.08,0-.16-.07-.16-.13s.05-.08.1-.09l.1,0a1.71,1.71,0,0,0,.46-.22h0l-.11,0h-.09c-.32,0-.33,0-.38-.09v0a.68.68,0,0,0-.47-.12h0c-.08,0-.1,0-.11,0s0,.07.07.1h0a.1.1,0,0,1,0,.09.07.07,0,0,1-.06,0l-.12,0-.16,0h-.12a.08.08,0,0,1-.06,0,.15.15,0,0,1,0-.12s0-.05,0-.06h-.17l-.25,0-.09,0h-.17c-.19,0-.27,0-.29.06s0,0,0,.07h0c.14.15.19.19.16.24s-.07,0-.15,0h0a.67.67,0,0,1-.17,0h0l0,.09s.13.09.12.16,0,.08-.09.1a.62.62,0,0,1-.21.07.07.07,0,0,1-.07-.07.16.16,0,0,0-.09,0s-.11,0-.11.08,0,.12-.09.12h-.08l-.07.05a.25.25,0,0,1-.16.08h-.06a1.5,1.5,0,0,0-.4-.11c-.12,0-.14,0-.17-.09v0a.31.31,0,0,0-.18-.08.08.08,0,0,0-.09.08,1.38,1.38,0,0,0,0,.14c0,.11,0,.2-.14.2a.32.32,0,0,0-.13,0l-.08,0a.12.12,0,0,1-.09,0,.3.3,0,0,1-.08-.31.06.06,0,0,0,0-.05l0,0-.09,0-.15.09a.3.3,0,0,1-.15.07l-.07,0,0,0,0,0-.08,0a1.22,1.22,0,0,1-.56.17,1.27,1.27,0,0,0-.57.16.36.36,0,0,1-.18,0h0c-.06,0-.09,0-.13.09a1.73,1.73,0,0,0-.08.23.81.81,0,0,1-.13.29.38.38,0,0,0-.1.3.56.56,0,0,1-.11.37.66.66,0,0,0-.14.51c.06.48,0,.75,0,.8s-.06.15-.08.25,0,.25-.11.28-.06.12-.07.19,0,.1,0,.12h0s-.15.08-.14.36c0,.06,0,.13,0,.21,0,.83,0,1.08,0,1.11a.29.29,0,0,0-.15.24.58.58,0,0,0,0,.1.19.19,0,0,1,0,.14.1.1,0,0,1-.06,0c-.07,0-.08,0-.08.15s0,0,0,.05,0,.3-.08.31a.11.11,0,0,0-.07,0,.23.23,0,0,0,0,.19.44.44,0,0,1-.06.4l0,0c-.07.08-.25.28-.23.43a.15.15,0,0,0,.07.11.46.46,0,0,0,.27.09.31.31,0,0,1,.21.07.17.17,0,0,0,.09,0l0,0a.12.12,0,0,1,.08,0h.23a.37.37,0,0,0,.22,0l.05-.06a.09.09,0,0,1,.07,0l.11,0a.32.32,0,0,1,.21.26.58.58,0,0,0,.13.27.34.34,0,0,1,.16.24,2.4,2.4,0,0,0,.18.6v0c0-.17.06-.21.1-.21h0a.09.09,0,0,0,.06-.05s0,0,0-.07l0,0c-.1-.08-.26-.21-.16-.34a.35.35,0,0,0,.06-.12s0-.06.07-.07H108a.19.19,0,0,1,.17.06.14.14,0,0,1,0,.13c-.07.16-.06.16,0,.18l.06,0a.36.36,0,0,0,.17.06l.07,0,.09,0a.09.09,0,0,1,.09.05.11.11,0,0,1,0,.12l-.06.05s-.06,0,0,.09a.2.2,0,0,1-.06.26.23.23,0,0,0-.06.14h0l.08-.08a.2.2,0,0,1,.13-.07l.1,0c.1,0,.25,0,.29-.09a0,0,0,0,0,0,0,.38.38,0,0,1,.07-.28.08.08,0,0,1,.06,0h0c.07,0,.08.12.08.19v0c0,.12,0,.19,0,.24s0-.12,0-.23,0-.31,0-.38v-.08a.2.2,0,0,1-.12-.07c-.05-.05-.22-.24-.18-.34a.09.09,0,0,1,.09-.05h0l.41,0h.26a.5.5,0,0,1,.34.18.34.34,0,0,0,.24.12.21.21,0,0,1,.1,0l.14.12a2.1,2.1,0,0,0,.3.24.83.83,0,0,0,.32.1l.12,0c.15,0,.32.11.36.21a.11.11,0,0,1,0,.11s0,0,0,0,.07,0,.11,0h0c.08,0,.35.1.37.21s0,.06-.06.09-.11.08-.11.09,0,0,.06.07a.55.55,0,0,0,.18.08c.11,0,.2.06.22.12a2.64,2.64,0,0,0,.22.44.26.26,0,0,1,0,.15c0,.06,0,.08,0,.1l.06,0c.11,0,.27.08.27.26a.38.38,0,0,0,.17.31h0a.17.17,0,0,1,0,.26s0,.09,0,.17a.55.55,0,0,0,0,.06c0,.07,0,.15,0,.2a.11.11,0,0,0-.06.08.07.07,0,0,0,0,.05.35.35,0,0,1,.14.37c0,.14,0,.17,0,.22l0,0,0,0s0,0,.06.13,0,.13.1.19a.71.71,0,0,1,.25.4c0,.12,0,.16.06.19s.41.37.32.48-.06.11,0,.18l.06.08c.13.15.39.44.36.62s0,.26.07.32h0a.89.89,0,0,1,.32.59,4.33,4.33,0,0,1-.12,1.1,2.68,2.68,0,0,0,0,1,1.19,1.19,0,0,1,0,.7.36.36,0,0,0,0,.28,1.2,1.2,0,0,1,0,.17v0a3.09,3.09,0,0,1,.05,1.38,4.29,4.29,0,0,1-.26.84l-.08.13a.34.34,0,0,0-.07.29.91.91,0,0,1-.14.61.36.36,0,0,0-.06.27s0,.07,0,.11a.69.69,0,0,0,0,.15,1,1,0,0,1-.08.83,1.17,1.17,0,0,0-.2.37.91.91,0,0,1-.26.37l-.1.1a3.1,3.1,0,0,1-.62.56.54.54,0,0,0-.2.16l-.06.06h0a.1.1,0,0,1-.06,0s-.06-.06-.06-.09v0c0-.09,0-.14-.14-.15h-.15a.2.2,0,0,1-.1,0h-.23a.11.11,0,0,1-.08,0,.12.12,0,0,1,0-.09c0-.15,0-.37-.2-.39l-.14,0a1,1,0,0,0-.24-.05.11.11,0,0,0-.09,0,.14.14,0,0,0,0,.12.72.72,0,0,1-.06.37.2.2,0,0,0,0,.15.53.53,0,0,1,0,.35.05.05,0,0,1,0,0s-.05,0-.06,0,0,0-.09,0-.2,0-.21.08,0,0,0,0,.18.1.19.15,0,.07-.08.12l0,0,0,0h0l-.09-.07,0,0,0,0h0a.08.08,0,0,1-.09-.05.27.27,0,0,1,0-.1v0s0,0,0,0h0l0-.08h0v0h0s0-.09,0-.14a.89.89,0,0,1,0-.23,1,1,0,0,1,.06-.14.55.55,0,0,0,.08-.23,1.46,1.46,0,0,0-.06-.44v0a2.93,2.93,0,0,0-.12-.35l-.05-.13a.92.92,0,0,0-.11-.21l0,0a.54.54,0,0,1-.11-.18.64.64,0,0,1,0-.15.8.8,0,0,0,0-.11.7.7,0,0,0-.13-.26l0,0-.12-.16-.09-.11-.1-.12a.18.18,0,0,1,0-.23l.05-.05a.22.22,0,0,0,.07-.1.57.57,0,0,0,0-.12c0-.12,0-.26.06-.32a.1.1,0,0,1,.08,0h0l.1,0,.12,0h.07a.46.46,0,0,1,.16,0,.52.52,0,0,1,.12.08l.06,0a.7.7,0,0,0,.38.09h0a.17.17,0,0,0,.14-.06.28.28,0,0,0,0-.21l0-.12,0-.13,0-.06a1.17,1.17,0,0,1-.06-.49c0-.06,0-.12,0-.18a1.34,1.34,0,0,0,0-.25,1.17,1.17,0,0,0-.07-.4v0a2.07,2.07,0,0,1-.08-.46.8.8,0,0,0-.22-.58,1.43,1.43,0,0,1-.13-.17.33.33,0,0,1,0-.32.64.64,0,0,0,.09-.35,1,1,0,0,0-.15-.36l0-.09a1.89,1.89,0,0,0-.19-.3.41.41,0,0,0-.31-.17h0a.49.49,0,0,0-.34.18l-.1.12a1.75,1.75,0,0,1-.16.17,1.68,1.68,0,0,1-.23.16l-.09.06-.15.11-.17.12a.62.62,0,0,1-.34.1h0l-.2,0-.2,0h0l-.2,0h-.2c-.32,0-.65-.14-.66-.45a.89.89,0,0,1,0-.19v-.1s0,0,0,0l-.09-.07-.06,0-.08,0a.41.41,0,0,1-.18-.16l0-.09a.29.29,0,0,0-.09-.17,1,1,0,0,0-.31-.13h0l-.09,0-.1,0-.08,0-.08,0h-.09a.84.84,0,0,1-.29-.07.63.63,0,0,1-.13-.09.39.39,0,0,0-.18-.1h-.3l-.1,0a.44.44,0,0,1-.12-.08l-.05,0,0,0a.25.25,0,0,1-.11-.1c0-.06,0-.07-.08-.07H104a.17.17,0,0,0-.1,0h0a.12.12,0,0,1-.08,0h0l-.07,0,0,0h-.12a.21.21,0,0,1-.15-.07l-.07-.06a.55.55,0,0,1-.13-.12.48.48,0,0,1-.07-.14l0,0,0-.06,0-.09a.76.76,0,0,1,0-.1l0-.08a.42.42,0,0,0-.05-.1l0,0a.43.43,0,0,0-.08-.09l-.06-.06,0-.06a.57.57,0,0,0-.1-.12l-.06,0a.37.37,0,0,1-.1-.09l0-.05,0-.06,0,0-.08-.07a.76.76,0,0,1-.08-.13h0v0h0a.16.16,0,0,1-.06-.05v0l0,0a.11.11,0,0,0-.09,0h-.18a.25.25,0,0,1-.18-.1.22.22,0,0,1,0-.1.21.21,0,0,0,0-.06l0-.11a.6.6,0,0,0-.07-.15.4.4,0,0,0-.17-.16.41.41,0,0,1-.22-.2.63.63,0,0,1,0-.25s0-.06,0-.08,0-.09-.1-.12l-.06,0,0,0,0,0h0l0,0a.26.26,0,0,1,0-.09l0-.05a.24.24,0,0,0-.16-.11l0,0a.18.18,0,0,1-.11-.11v0l0,0,0-.06a.49.49,0,0,1-.17-.12l0-.05-.09-.09,0,0a.31.31,0,0,1-.12-.14l0-.08a.22.22,0,0,0-.06-.13.1.1,0,0,0-.07,0,.36.36,0,0,0-.17.08.58.58,0,0,1-.14.08h0c-.09,0-.14-.08-.17-.15s0-.08-.09-.08h-.06a.23.23,0,0,1-.17-.09h0a.07.07,0,0,0-.05,0l-.09,0h0l-.12,0-.13,0-.13,0-.14-.05-.1-.05-.16-.07a.86.86,0,0,0-.24,0h0l-.13,0-.11,0h0a.48.48,0,0,1-.23-.07,1.1,1.1,0,0,0-.22-.09h-.07l-.14,0-.13,0-.11,0-.1,0a.44.44,0,0,1-.13,0H96a.41.41,0,0,0-.21.06l-.11.09-.12.1a.57.57,0,0,1-.26.06c-.12,0-.23,0-.29.11a.39.39,0,0,0,0,.14.52.52,0,0,1,0,.13.55.55,0,0,1-.1.15.64.64,0,0,0-.08.1.2.2,0,0,0,0,.24.23.23,0,0,0,.17.06h.12c.23,0,.27.2.31.38s0,.09,0,.13a.4.4,0,0,0,.08.13l.06.08a.36.36,0,0,1,0,.33l0,.06a.72.72,0,0,0-.06.22s0,.06,0,.08a1.47,1.47,0,0,1,0,.25l0,.08a1,1,0,0,0,0,.23c0,.07,0,.14,0,.2s0,.08,0,.11,0,.13,0,.2a1.07,1.07,0,0,1,0,.51v0a.37.37,0,0,0,0,.27.58.58,0,0,0,.18.2l0,0s.13.12.1.22a.35.35,0,0,1-.08.13l-.06.06,0,0-.12.08h-.07l0,0,0,0,0,.06,0,.06,0,0-.06.07a.26.26,0,0,0,0,.08v.1a1,1,0,0,0,0,.13v0a.09.09,0,0,0,0,0v0a.08.08,0,0,1,0,.08l0,0L95,178c-.07-.08-.15-.17-.25-.18h0a.34.34,0,0,0-.18.08l-.08,0a.25.25,0,0,1-.12,0,.34.34,0,0,1-.2-.08l-.06,0a1.06,1.06,0,0,0-.19-.13h0a.76.76,0,0,1-.26-.18l0-.05a.36.36,0,0,0-.19-.15h0a.48.48,0,0,0-.23.1l-.06,0a.59.59,0,0,1-.29.11h-.07a.84.84,0,0,1-.28-.17l-.11-.08a1.05,1.05,0,0,0-.41-.19h-.1a1,1,0,0,0-.5.15,1,1,0,0,0-.23.2.45.45,0,0,0-.09.29s0,.05,0,.08a.56.56,0,0,1,0,.27.32.32,0,0,1-.27.17h0a.51.51,0,0,1-.16,0l-.11,0h0a.51.51,0,0,0-.25.09l-.07,0-.21.12a1.42,1.42,0,0,1-.31.11h-.07a.36.36,0,0,0-.2.08l0,0-.07.08,0,0a.54.54,0,0,1-.19.14.75.75,0,0,1-.26,0h-.54A.32.32,0,0,1,88,179h0a.7.7,0,0,0-.27-.08H87a.18.18,0,0,1-.13,0l-.05-.07a.35.35,0,0,0-.07-.08l-.07,0-.08,0,0,0h-.05c-.1,0-.3-.05-.35-.22h0a.2.2,0,0,0-.08-.13.51.51,0,0,0-.2,0h0a.5.5,0,0,1-.37-.19.44.44,0,0,0-.15-.12l-.09,0-.12-.05h0a.32.32,0,0,0-.15-.06h0l-.14,0-.12,0h0a.27.27,0,0,1-.19-.1.23.23,0,0,0-.17-.07h-.64a.85.85,0,0,0-.29,0A.78.78,0,0,0,83,178a.31.31,0,0,1-.18.13l-.22,0h0l-.1,0-.08,0h0a.37.37,0,0,1-.17-.06l-.06,0a1.45,1.45,0,0,0-.26-.09l-.18,0a2.08,2.08,0,0,1-.34-.08,1.37,1.37,0,0,1-.54-.37,2.25,2.25,0,0,1-.33-.52,1.2,1.2,0,0,0-.32-.43,1.26,1.26,0,0,0-.5-.22l-.59-.1-.27,0h-.31A1,1,0,0,1,78,176l-.14-.09-.14-.09a.53.53,0,0,0-.22-.09h0c-.09,0-.13.09-.17.21v0a1.75,1.75,0,0,1-.14.29l0,.08a1,1,0,0,0,.07,1.05l.12.16a2.84,2.84,0,0,1,.26.38.74.74,0,0,1,.1.56.65.65,0,0,1-.33.37A.64.64,0,0,1,77,179a1.12,1.12,0,0,1-.31,0l-.13,0h0l-.07,0h-.25l-.08,0-.14,0h0c-.07,0-.11.06-.16.12a.36.36,0,0,1-.14.13.3.3,0,0,1-.14,0h-.22l-.21,0a1,1,0,0,1-.52-.3l-.06,0-.08-.06-.13-.11a.49.49,0,0,1-.11-.19v0a.34.34,0,0,0-.08-.16.21.21,0,0,0-.15,0h-.82a.29.29,0,0,1-.15,0,.48.48,0,0,1-.14-.16l0,0,0,0s-.08-.13-.13-.13-.05.08-.06.11v0s0,.12-.1.12l-.05,0a.51.51,0,0,1-.12-.11l-.07-.08,0,0s0,0,0,0l0,.06a.38.38,0,0,1-.08.15.25.25,0,0,1-.17.05h0a.15.15,0,0,0-.13.09l0,.1a.54.54,0,0,1-.06.14.19.19,0,0,1-.17.08h-.23c-.1,0-.15,0-.17.13a.9.9,0,0,0,0,.22s0,0,0,.06v0a.47.47,0,0,1,0,.23.19.19,0,0,1-.18.09h-.23c-.13,0-.18.12-.24.24l0,0a1.53,1.53,0,0,1-.13.2l-.1.15,0,0c-.07.12-.15.26-.32.27h0a.52.52,0,0,1-.18,0,.56.56,0,0,0-.15,0h0c-.12,0-.19.13-.27.24l0,0,0,0-.06.09a.2.2,0,0,1-.11.08h-.18l-.14-.05-.1-.07-.08-.05-.1-.06-.1-.06a1,1,0,0,1-.18-.15L68,180l-.09-.1a.21.21,0,0,0-.14,0,.4.4,0,0,0-.17,0,.34.34,0,0,0-.1.08l0,0a.32.32,0,0,1-.15.09h-.06a.32.32,0,0,1-.2-.1l0,0-.2-.13-.17-.11h0l-.09-.06,0,0-.08-.05-.08-.1-.06-.08-.09-.09,0,0-.13-.12L66,179.1l0-.06a.23.23,0,0,0-.17-.08l-.1,0a.49.49,0,0,1-.17-.11,1.54,1.54,0,0,1-.17-.18.6.6,0,0,1-.11-.19v-.05a.41.41,0,0,0,0-.09.3.3,0,0,0-.14-.11,1.22,1.22,0,0,0-.26-.09l-.13,0h-.12l-.08,0h0a.3.3,0,0,0-.24.13,1.16,1.16,0,0,1-.23.24.41.41,0,0,1-.2.08h-.47l-.21,0a.43.43,0,0,1-.2-.11l-.11-.12-.08-.09a3.44,3.44,0,0,0-.3-.27l-.06-.05-.16-.13-.06,0h0a.1.1,0,0,0,0,.1,1.73,1.73,0,0,1,0,.21v.07s0,.08,0,.12a.2.2,0,0,1,0,.11l0,0v0a.14.14,0,0,1-.09.09h-.1a.19.19,0,0,1-.12,0l-.16-.14-.05-.06,0,0a5.76,5.76,0,0,1-.35-.48l-.14-.21-.1-.14a5.14,5.14,0,0,1-.31-.47l0,0,0,0v0l0,0,0-.08,0,0a.34.34,0,0,0-.06-.08l0,0,0-.05h0l0,0a.62.62,0,0,1-.15-.2l0-.09a1.24,1.24,0,0,0-.12-.15l-.09-.1a1.56,1.56,0,0,0-.22-.24,2.12,2.12,0,0,1-.18-.18l-.05-.06-.05-.05,0-.06h0l-.11-.16-.07-.1L59,175l-.16-.15-.09-.08a1.52,1.52,0,0,0-.25-.19l-.12-.09h0l-.08-.06-.07,0-.07,0a1.05,1.05,0,0,1-.2-.15l-.09-.08-.08-.08,0,0-.06-.05a.15.15,0,0,1,0-.12.1.1,0,0,1,.05-.07l.05,0h0a.11.11,0,0,0,0-.06.28.28,0,0,0,0-.14.3.3,0,0,0-.12.07h0a.68.68,0,0,1-.24.11h0a.47.47,0,0,0-.14.08l0,0-.11.06-.09,0,0,0L57,174a.09.09,0,0,0,0,.06.52.52,0,0,1-.13.21.28.28,0,0,1-.15.06l-.09,0h0a.77.77,0,0,0-.19.13.54.54,0,0,0-.13.2.3.3,0,0,0,0,.06.31.31,0,0,1,0,.07.32.32,0,0,1-.06.11v0l0,0v0h0a.21.21,0,0,1-.08-.08l-.1-.09,0,0-.08-.05-.12,0h-.09a.25.25,0,0,0-.09.05.31.31,0,0,1-.19.08h0a.17.17,0,0,1-.11-.08.16.16,0,0,1,0-.14.53.53,0,0,1,.15-.22l0,0s.08-.07.08-.11,0-.12-.06-.12h0l-.05,0,0,0a.23.23,0,0,1-.12,0H55a.17.17,0,0,1-.13-.06s-.08-.09-.13-.09h-.2l-.09,0h0a.12.12,0,0,1-.08,0h0a.15.15,0,0,1-.08-.13.15.15,0,0,0,0-.08c0-.06-.11-.12-.15-.12h0l0,0,0,0h0l0,0a.13.13,0,0,1-.08,0h-.2l-.16,0H53.2s-.06,0-.06,0,0-.08,0-.13l0-.06h0v0a.25.25,0,0,1,0-.15l0,0a.12.12,0,0,0,0,0s0-.05-.06-.09l-.13-.08h0a.3.3,0,0,1-.18-.14.34.34,0,0,1,0-.15v0a1.16,1.16,0,0,0,0-.18.45.45,0,0,0-.15-.31l-.08,0,0,0-.09,0h0a.33.33,0,0,0-.16.07l0,0a.18.18,0,0,1-.09.06h0a.27.27,0,0,1-.12,0,.19.19,0,0,1-.08-.09v0a.09.09,0,0,0-.08,0h-.07l-.08,0h0l-.08,0,0,0h-.09a.18.18,0,0,1-.12-.05.27.27,0,0,0-.1-.07h-.08s0,.06,0,.09v0a.15.15,0,0,1,0,.15.28.28,0,0,1-.13.1l0,0-.09,0-.05,0a.28.28,0,0,0-.14.14l0,.07a.72.72,0,0,1,0,.08.24.24,0,0,1-.1.14.33.33,0,0,1-.12,0h0l-.12,0h0l-.14,0h0a2.25,2.25,0,0,0-.31.11l0,0-.14.06-.05,0-.09,0-.08,0-.08,0-.07,0-.08,0-.13,0h0l-.19,0h0l-.1,0h0l-.14,0-.09,0h0s-.06,0-.07,0a.12.12,0,0,0,0,.08.49.49,0,0,1,0,.06c0,.09-.07.1-.12.11h-.23a.44.44,0,0,1-.24,0h-.09v0h0a.46.46,0,0,0-.14.07l0,0,0,0-.08.06,0,0,0,0v0l0,.05h0c-.08,0-.12-.13-.12-.13s0,0,0-.05h0l0,0h0l0,0h0a0,0,0,0,1,0,.05h-.27a.17.17,0,0,0-.08.05l0,0,0,0,0,0,0,0,0,0,0,0a.18.18,0,0,0,0,.05h0a.29.29,0,0,1-.12.17h-.05a.16.16,0,0,1-.13-.08v0l0,0-.06,0h-.42l-.1,0h-.06l-.17,0h0c-.07,0-.1,0-.1,0v0a.22.22,0,0,1,0,.13l-.05.06s-.09.09-.09.11l0,0,.1,0,.08,0a.36.36,0,0,0,.16,0,.3.3,0,0,1,.22.07.08.08,0,0,1,0,.08s-.07.08-.1.09l0,0s-.09,0-.11.06,0,.08.06.1a.58.58,0,0,0,.19,0l.16,0h0a.48.48,0,0,1,.17,0,.16.16,0,0,1,.07.17.17.17,0,0,1-.11.15h0l-.13,0h0l-.19-.06-.12,0h0a.27.27,0,0,0-.09.1l0,0a.61.61,0,0,1-.14.12.15.15,0,0,0-.05.13.21.21,0,0,0,.06.11.66.66,0,0,1,.14.44.74.74,0,0,1,0,.25.28.28,0,0,1-.13.15l-.07.05-.08.06a.33.33,0,0,1-.18,0h0s-.09,0-.11,0,0,0,0,0l.08,0,.09,0,.08.05.09.06.07,0a.69.69,0,0,1,.27.22l0,0a.2.2,0,0,0,.05.07.38.38,0,0,0,.15.07h.18a.17.17,0,0,1,.15.07.24.24,0,0,1,0,.14v0a.33.33,0,0,0,0,0,.39.39,0,0,1,0,0,.19.19,0,0,1,0,0v0s0,.09,0,.15h0a.82.82,0,0,1,0,.18.48.48,0,0,1-.24.35,1.54,1.54,0,0,1-.33.11l-.08,0-.1,0-.09,0a.88.88,0,0,1-.2-.16l-.08-.07h0s-.08-.07-.11-.07h0a.34.34,0,0,0,0,.12.55.55,0,0,1,0,.08.88.88,0,0,1-.06.21.12.12,0,0,1-.06.08h0a.11.11,0,0,1-.08,0l-.06-.08a.37.37,0,0,0-.08-.1l-.06,0h-.46a.39.39,0,0,1-.19-.13l0,0a.26.26,0,0,0-.09-.08l-.11,0H43a.14.14,0,0,1-.14-.07l0-.06h-.2s0,0,0,.07h0a.24.24,0,0,1-.07.12.41.41,0,0,1-.15.09l-.09,0a.14.14,0,0,1-.09,0,.31.31,0,0,1-.07-.1l0,0A.18.18,0,0,0,42,179h-.14l-.09,0a.21.21,0,0,0-.12,0h0a.27.27,0,0,1-.09.05h-.1a.32.32,0,0,0-.1.07h0a.31.31,0,0,0-.08.09.19.19,0,0,0,0,.07s0,0,0,0a.48.48,0,0,1-.18.28.34.34,0,0,1-.18.08h0l-.09,0h0a.23.23,0,0,1-.11,0l-.07-.06-.08-.07a.76.76,0,0,1-.21-.22,1,1,0,0,1-.07-.13l-.06-.11a1.87,1.87,0,0,0-.17-.23s0,0-.05,0,0,0,0,0a.5.5,0,0,0,.07.42l0,.07v0a.36.36,0,0,1,0,.21c0,.09-.08.21-.18.21s-.14-.12-.16-.19a.92.92,0,0,1,0-.22h0c0-.06,0-.11,0-.11h0a.15.15,0,0,1-.14-.08.49.49,0,0,1,0-.08.2.2,0,0,0-.05-.11.66.66,0,0,0-.16-.1l0,0-.1,0-.17-.08a.45.45,0,0,1-.16-.2l0,0a.16.16,0,0,0-.13-.09l-.08,0-.1,0h-.06a.27.27,0,0,1-.21-.07l-.06-.09a.42.42,0,0,0-.07-.09.21.21,0,0,0-.13,0h-.07a.39.39,0,0,0-.15.13l0,0a.65.65,0,0,1-.25.18.45.45,0,0,1-.16,0,.2.2,0,0,1-.11,0,.25.25,0,0,1-.07-.14l0-.05a.12.12,0,0,0-.11-.08c-.13,0-.24.12-.33.23l-.06.06-.23.24a.61.61,0,0,1-.24.15l-.11,0-.14,0a.27.27,0,0,0-.15.14l0,.07-.07.14-.08.12-.07.1v0a.44.44,0,0,1-.34.24H35c-.05,0-.06,0-.06.09l0,.12a1.34,1.34,0,0,1,0,.13.39.39,0,0,1,0,.11.32.32,0,0,0,0,.08v.19c0,.09,0,.22-.09.27a.43.43,0,0,1-.2,0l-.11,0a.41.41,0,0,1-.13-.11h0l-.11-.12,0-.05-.14-.17-.17-.2h0s-.08-.09-.13-.1h0s0,0,0,.05a.84.84,0,0,0,0,.16v0l0,.22a.75.75,0,0,1-.17.34l0,0,0,0a.18.18,0,0,0,0,.07v0l0,.06,0,.06a.61.61,0,0,0,0,.09.65.65,0,0,1,0,.07v0s0,0,0,.07a.33.33,0,0,0,0,.06s0,0,0,.07a.71.71,0,0,0,0,.08s0,0,0,.06a.65.65,0,0,0,0,.1.54.54,0,0,1,0,.14.48.48,0,0,1-.09.2l0,.06v0l0,.06v.1a.24.24,0,0,0,0,.21l.05.07,0,0v0l.07.09a.59.59,0,0,0,.17.1c.1.05.21.1.25.23a.58.58,0,0,1,0,.18s0,0,0,.06a1.11,1.11,0,0,1,0,.14.25.25,0,0,1,0,0,.24.24,0,0,0,0,.09s.06,0,.13,0h0l.11,0h0l.09,0h0a.15.15,0,0,1,.08,0l0,0a.19.19,0,0,0,.11,0h.27a.24.24,0,0,1,.18.17l.05.1.06.12h0l.06.12a1,1,0,0,0,.11.13.44.44,0,0,1,.09.12l0,.08,0,.06a.48.48,0,0,0,.11.15l.06.07a.71.71,0,0,1,.12.22.23.23,0,0,1,0,.23.17.17,0,0,1-.12.05l-.11,0a.27.27,0,0,0-.1,0s0,0,0,0,0,.07.12.09a.44.44,0,0,1,.16.12l0,0,0,.05,0,0,0,0,0,0v0a.6.6,0,0,0-.09.24c0,.09-.06.1-.11.1H35.2a.47.47,0,0,0,.08.27.07.07,0,0,1,0,.07.05.05,0,0,1-.05,0,.59.59,0,0,1-.16,0H35a.27.27,0,0,1-.1,0h-.06a.5.5,0,0,1,0,.09c-.05.1-.21.16-.39.23l-.21.08a.23.23,0,0,0-.12.3.12.12,0,0,1,0,.17s0,.09,0,.16,0,.19-.09.23a.12.12,0,0,0-.07.07,2.33,2.33,0,0,1-.2.28c-.15.18,0,.32.2.5a1,1,0,0,1,.23.24.2.2,0,0,1,0,.2.26.26,0,0,1-.21.1l-.17.1h0a2,2,0,0,0,.66-.17l.08,0,.06,0c0,.05,0,.17,0,.4a3.93,3.93,0,0,0-.09.53,1.38,1.38,0,0,0,.46,1c.08.08.51.73.68,1v0l-.16.2-.05.06a2.48,2.48,0,0,1-.24.25A.66.66,0,0,1,34.64,192.64ZM82,175.18a.08.08,0,0,0,0,0v0c0,.2,0,.25.06.27s.14.1.12.17,0,0-.08.06-.4.1-.41.17,0,.06.09.1a.84.84,0,0,0,.4.09,1.61,1.61,0,0,0,.43-.07h.09c.21,0,.78-.17.8-.66,0-.32.08-.49.2-.49a.15.15,0,0,1,.11.06l0,0a.61.61,0,0,1,.12-.36,1.82,1.82,0,0,1,.22-.18c.21-.15.5-.36.46-.52l0-.1c-.05-.19-.09-.33,0-.45s.21-.24.21-.26l-.06,0c-.13,0-.21,0-.24-.07a.17.17,0,0,1,0-.15s.1-.3.19-.3.06,0,.06.08a.19.19,0,0,0,.15.14h0s0,0,0-.11a.48.48,0,0,1,0-.42s.09-.1-.12-.37-.2-.43-.19-.47a1,1,0,0,0-.09-.37,2,2,0,0,1-.23-.67c0-.2-.08-.47-.16-.48a.54.54,0,0,1-.27-.14l0,0s0,0,0,.09a1.18,1.18,0,0,1,0,.23.37.37,0,0,0,0,.09,1.94,1.94,0,0,0,.09.35.77.77,0,0,1,0,.28A.63.63,0,0,0,84,171c.06,0,.13.16.13.24v0c0,.23,0,.29,0,.3a.87.87,0,0,0,0,.26,1.18,1.18,0,0,1-.09.59,1.09,1.09,0,0,0-.21.57c0,.27,0,.31-.11.42s-.39.51-.36.58h0l.1,0a.09.09,0,0,1,.09,0s0,.09,0,.17l-.21.41a9,9,0,0,1-.54,1,.19.19,0,0,1-.14.07.24.24,0,0,1-.16-.1h0a1.39,1.39,0,0,0-.41-.35Z"/><path class="cls-1" d="M47.46,145.13h0a5.42,5.42,0,1,0-10,0h0L42,156.81a.44.44,0,0,0,.85,0l4.57-11.67h0Z"/><circle class="cls-10" cx="42.43" cy="143.04" r="3.02"/><path class="cls-2" d="M106,139.69h0a5.42,5.42,0,1,0-10,0h0l4.57,11.67a.44.44,0,0,0,.85,0L106,139.71h0Z"/><circle class="cls-10" cx="100.99" cy="137.61" r="3.02"/><path class="cls-4" d="M117.19,172.18h0a5.42,5.42,0,1,0-10,0h0l4.57,11.67a.44.44,0,0,0,.85,0l4.57-11.67h0Z"/><circle class="cls-10" cx="112.17" cy="170.1" r="3.02"/><path class="cls-3" d="M74.41,159.5h0a5.42,5.42,0,1,0-10,0h0L69,171.18a.44.44,0,0,0,.85,0l4.57-11.67h0Z"/><circle class="cls-10" cx="69.38" cy="157.42" r="3.02"/><path class="cls-5" d="M36.41,174.94h0a5.42,5.42,0,1,0-10,0h0L31,186.62a.44.44,0,0,0,.85,0L36.4,175h0Z"/><circle class="cls-10" cx="31.38" cy="172.86" r="3.02"/><path class="cls-6" d="M521.94,266H431.83a20.38,20.38,0,0,1-20.32-20.32h0a20.38,20.38,0,0,1,20.32-20.32h90.11a20.38,20.38,0,0,1,20.32,20.32h0A20.38,20.38,0,0,1,521.94,266Z"/><path class="cls-4" d="M432.71,274.42a28.59,28.59,0,1,1,28.59-28.59A28.63,28.63,0,0,1,432.71,274.42Zm0-54.19a25.59,25.59,0,1,0,25.59,25.59A25.62,25.62,0,0,0,432.71,220.23Z"/><path class="cls-12" d="M434.29,245.6a12.26,12.26,0,0,1-.62,4,9.94,9.94,0,0,1-1.72,3.15,7.84,7.84,0,0,1-2.61,2.07,7.67,7.67,0,0,1-6.57,0,7.82,7.82,0,0,1-2.61-2.07,9.92,9.92,0,0,1-1.72-3.15,13.06,13.06,0,0,1,0-8,9.94,9.94,0,0,1,1.72-3.15,8,8,0,0,1,2.61-2.09,7.51,7.51,0,0,1,6.57,0,8,8,0,0,1,2.61,2.09,10,10,0,0,1,1.72,3.15A12.27,12.27,0,0,1,434.29,245.6Zm-2.27,0a11,11,0,0,0-.44-3.22,7.86,7.86,0,0,0-1.23-2.48,5.64,5.64,0,0,0-1.89-1.61,5.14,5.14,0,0,0-2.41-.58,5.21,5.21,0,0,0-2.45.58,5.64,5.64,0,0,0-1.89,1.61,7.84,7.84,0,0,0-1.23,2.48,11.9,11.9,0,0,0,0,6.44,7.83,7.83,0,0,0,1.23,2.48,5.47,5.47,0,0,0,1.89,1.59,5.33,5.33,0,0,0,2.45.56,5.26,5.26,0,0,0,2.41-.56,5.47,5.47,0,0,0,1.89-1.59,7.85,7.85,0,0,0,1.23-2.48A11,11,0,0,0,432,245.6Z"/><path class="cls-12" d="M447.79,259.39v-5.84H436.86v-2l11.66-15.1H450v15h2.89v2H450v5.84Zm-8.57-7.88H448V240Z"/><path class="cls-6" d="M475.6,338.48H380.07a21.61,21.61,0,0,1-21.54-21.54h0a21.61,21.61,0,0,1,21.54-21.54H475.6a21.61,21.61,0,0,1,21.54,21.54h0A21.61,21.61,0,0,1,475.6,338.48Z"/><path class="cls-5" d="M381,347.32a30.22,30.22,0,1,1,30.22-30.22A30.26,30.26,0,0,1,381,347.32Zm0-57.45a27.22,27.22,0,1,0,27.22,27.22A27.25,27.25,0,0,0,381,289.87Z"/><path class="cls-13" d="M382.68,316.86a13,13,0,0,1-.66,4.23,10.56,10.56,0,0,1-1.83,3.34,8.3,8.3,0,0,1-2.77,2.19,8.13,8.13,0,0,1-7,0,8.28,8.28,0,0,1-2.77-2.19,10.55,10.55,0,0,1-1.83-3.34,13.86,13.86,0,0,1,0-8.46,10.54,10.54,0,0,1,1.83-3.34,8.49,8.49,0,0,1,2.77-2.21,8,8,0,0,1,7,0,8.51,8.51,0,0,1,2.77,2.21,10.55,10.55,0,0,1,1.83,3.34A13,13,0,0,1,382.68,316.86Zm-2.4,0a11.6,11.6,0,0,0-.47-3.41,8.31,8.31,0,0,0-1.3-2.63,6,6,0,0,0-2-1.71,5.44,5.44,0,0,0-2.56-.61,5.51,5.51,0,0,0-2.59.61,6,6,0,0,0-2,1.71,8.31,8.31,0,0,0-1.31,2.63,12.63,12.63,0,0,0,0,6.82,8.3,8.3,0,0,0,1.31,2.63,5.79,5.79,0,0,0,2,1.69,5.65,5.65,0,0,0,2.59.59,5.57,5.57,0,0,0,2.56-.59,5.8,5.8,0,0,0,2-1.69,8.3,8.3,0,0,0,1.3-2.63A11.6,11.6,0,0,0,380.28,316.86Z"/><path class="cls-13" d="M393.81,316.2a8.59,8.59,0,0,1,3.17.57,7.8,7.8,0,0,1,2.56,1.62,7.54,7.54,0,0,1,1.72,2.49,7.93,7.93,0,0,1,.63,3.18,8.11,8.11,0,0,1-.68,3.36,7.68,7.68,0,0,1-1.84,2.58,8.45,8.45,0,0,1-2.73,1.65,9.38,9.38,0,0,1-3.34.59,9.5,9.5,0,0,1-2.52-.33,8.38,8.38,0,0,1-2.21-1,9,9,0,0,1-1.83-1.5,7.76,7.76,0,0,1-1.34-2l1.57-1.18a7.65,7.65,0,0,0,2.66,2.75,6.92,6.92,0,0,0,3.71,1,6.55,6.55,0,0,0,2.4-.44,5.88,5.88,0,0,0,1.95-1.24,5.68,5.68,0,0,0,1.31-1.92,6.2,6.2,0,0,0,.47-2.44,6,6,0,0,0-.45-2.35,5.47,5.47,0,0,0-1.25-1.83,5.65,5.65,0,0,0-1.88-1.18,6.4,6.4,0,0,0-2.33-.42,6.88,6.88,0,0,0-3.08.71,6,6,0,0,0-2.35,2.07H385.9c0-.14.08-.45.17-.94s.21-1.07.35-1.74.29-1.42.45-2.25l.49-2.49q.59-2.93,1.29-6.51h11.94v2.19H390.43l-1.71,8.88a6.2,6.2,0,0,1,2.21-1.51A7.44,7.44,0,0,1,393.81,316.2Z"/><path class="cls-14" d="M106.44,333.33a4,4,0,0,1,0-8,157,157,0,0,0,80.5-22.15A4,4,0,0,1,191,310,165,165,0,0,1,106.44,333.33Z"/><path class="cls-5" d="M191,310l-4.1-6.87a157.42,157.42,0,0,0,60.52-65.47l7.17,3.55A165.41,165.41,0,0,1,191,310Z"/><circle class="cls-10" cx="188.99" cy="306.61" r="3.2"/><path class="cls-5" d="M189,300.41a6.2,6.2,0,1,0,6.2,6.2A6.21,6.21,0,0,0,189,300.41Zm0,9.4a3.2,3.2,0,1,1,3.2-3.2A3.2,3.2,0,0,1,189,309.81Z"/><path class="cls-4" d="M254.63,241.25l-7.17-3.55a155.66,155.66,0,0,0,16.19-67.23l8,.12A163.6,163.6,0,0,1,254.63,241.25Z"/><circle class="cls-10" cx="251.04" cy="239.48" r="3.2"/><path class="cls-4" d="M251,233.28a6.2,6.2,0,1,0,6.2,6.2A6.21,6.21,0,0,0,251,233.28Zm0,9.4a3.2,3.2,0,1,1,3.2-3.2A3.2,3.2,0,0,1,251,242.68Z"/><path class="cls-3" d="M271.64,170.6l-8-.12,0-.85c0-.51,0-1,0-1.54a155.63,155.63,0,0,0-16.22-69.61l7.17-3.55a163.56,163.56,0,0,1,17,73.16c0,.57,0,1.13,0,1.7Z"/><circle class="cls-10" cx="267.68" cy="170.54" r="3.2"/><path class="cls-3" d="M267.68,164.34a6.2,6.2,0,1,0,6.2,6.2A6.21,6.21,0,0,0,267.68,164.34Zm0,9.4a3.2,3.2,0,1,1,3.2-3.2A3.2,3.2,0,0,1,267.68,173.74Z"/><path class="cls-2" d="M247.46,98.48A157.43,157.43,0,0,0,186.94,33l4.1-6.87a165.41,165.41,0,0,1,63.59,68.79Z"/><circle class="cls-10" cx="251.04" cy="96.7" r="3.2"/><path class="cls-2" d="M251,90.5a6.2,6.2,0,1,0,6.2,6.2A6.21,6.21,0,0,0,251,90.5Zm0,9.4a3.2,3.2,0,1,1,3.2-3.2A3.2,3.2,0,0,1,251,99.9Z"/><path class="cls-1" d="M189,33.57a4,4,0,0,1-2-.57,156.28,156.28,0,0,0-43.39-17.74,157.89,157.89,0,0,0-37.11-4.41,4,4,0,0,1,0-8A164.5,164.5,0,0,1,191,26.14,4,4,0,0,1,189,33.57Z"/><circle class="cls-10" cx="188.99" cy="30.25" r="3.2"/><path class="cls-1" d="M189,24.05a6.2,6.2,0,1,0,6.2,6.2A6.21,6.21,0,0,0,189,24.05Zm0,9.4a3.2,3.2,0,1,1,3.2-3.2A3.2,3.2,0,0,1,189,33.45Z"/><path class="cls-15" d="M464.38,27.58l-3.6-9.76A1.41,1.41,0,0,0,459,17L441.42,23.5a1.42,1.42,0,0,0-.83,1.82l3.6,9.76a1.41,1.41,0,0,0,1.81.84l17.55-6.51h0A1.42,1.42,0,0,0,464.38,27.58ZM458,18.86l-5.44,7.8-9.2-2.37Zm-12.75,15-3.12-8.46,7.23,1.86Zm1.53.22,4-6.44,1.89.49.18,0a.71.71,0,0,0,.58-.3l1.12-1.6,7.23,2.27Zm8.62-9.05,4.28-6.13,3.12,8.46Z"/><path class="cls-15" d="M441.15,35.27a.7.7,0,0,0-.91-.42l-2.66,1a.71.71,0,1,0,.49,1.33l2.66-1A.71.71,0,0,0,441.15,35.27Z"/><path class="cls-15" d="M437.55,28.7a.71.71,0,0,0-.91-.42l-1.64.61a.71.71,0,1,0,.49,1.33l1.64-.61A.71.71,0,0,0,437.55,28.7Z"/><path class="cls-15" d="M435.52,34.06a.7.7,0,0,0-.91-.42l-1.22.45a.71.71,0,1,0,.49,1.33L435.1,35A.71.71,0,0,0,435.52,34.06Z"/><path class="cls-16" d="M502,93a1.24,1.24,0,1,1-1.24-1.24A1.24,1.24,0,0,1,502,93Zm5-1.24A1.24,1.24,0,1,0,508.32,93,1.24,1.24,0,0,0,507.08,91.78Zm5.3,5v-.14a10.92,10.92,0,0,1-.5,1.19,7.36,7.36,0,0,0,.2.93,6.17,6.17,0,0,0,2.93,2.05,3.37,3.37,0,0,1-1.8.22,5.36,5.36,0,0,0,2.51,1.76c-2.65,2.39-7,2.44-10.08.59a5.66,5.66,0,0,1-3.43,0c-3.05,1.86-7.42,1.8-10.08-.59a5.35,5.35,0,0,0,2.54-1.8,3.39,3.39,0,0,1-1.44-.26,6.41,6.41,0,0,0,2.35-1.39,7.39,7.39,0,0,0,.4-1.52,10.91,10.91,0,0,1-.5-1.19v.14H494a2.14,2.14,0,0,1-2.14-2.14V92.33A2.14,2.14,0,0,1,493,90.44c0-3.35,1-6,2.9-7.77s4.6-2.7,8.05-2.7,6.16.91,8.05,2.7,2.88,4.42,2.9,7.77A2.14,2.14,0,0,1,516,92.33v2.36a2.14,2.14,0,0,1-2.14,2.14h-1.5Zm-.89-3.8c0-.55,0-1.07-.07-1.57a9,9,0,0,0-5-1.79,2.69,2.69,0,0,1,.82,1.34c-1.3-.95-4-1.24-4.92-2.26h0c-1.44-1-1.81-2.31-1.83-1.75a5.16,5.16,0,0,1-4.1,5.11c0,.3,0,.6,0,.91a9.7,9.7,0,0,0,.5,3.12c1.2,1.44,3.17,1.85,4.92,2a2.23,2.23,0,0,1,1.9-.88c1.15,0,2.08.66,2.08,1.48s-.93,1.48-2.08,1.48a2.19,2.19,0,0,1-1.94-.94A10.24,10.24,0,0,1,498,98.4c1.68,2.48,4.29,3.79,5.92,3.79C506.5,102.19,511.48,99,511.48,93Zm1.3-2.84h.82c-.14-5.84-3.47-8.92-9.66-8.92s-9.53,3.08-9.66,8.92h.82A10.29,10.29,0,0,1,497,85.35c1.54-2,3.87-3,6.93-3s5.39,1,6.93,3A10.29,10.29,0,0,1,512.78,90.18Z"/><path class="cls-17" d="M521.82,164.87H532a.73.73,0,1,0,0-1.46H521.82a.73.73,0,0,0,0,1.46Z"/><path class="cls-17" d="M521.82,167.38H532a.73.73,0,1,0,0-1.46H521.82a.73.73,0,0,0,0,1.46Z"/><path class="cls-17" d="M527.21,176h-5.39a.73.73,0,0,0,0,1.46h5.39a.73.73,0,0,0,0-1.46Z"/><path class="cls-17" d="M542.36,159.5l-2.15-1.29a.73.73,0,0,0-1,.25l-3.74,6.23v-4.41a.73.73,0,0,0-.73-.73H518.4a.73.73,0,0,0-.73.73v20.57a.73.73,0,0,0,.73.73h16.35a.73.73,0,0,0,.73-.73v-8.45l7.13-11.89a.73.73,0,0,0-.25-1Zm-9.43,14.29-1.21,1,.32-1.54,7-11.67.89.54-7,11.67Zm7.75-12.92-.89-.54.3-.49.89.54Zm-21.56,19.24V161H534v6.12l-1.29,2.15a.72.72,0,0,0-.72-.84H521.82a.73.73,0,0,0,0,1.46H532a.73.73,0,0,0,.43-.14l-.71,1.19h-9.9a.73.73,0,0,0,0,1.46h9l-.13.21a.73.73,0,0,0-.09.23l-.13.61h-8.69a.73.73,0,0,0,0,1.46h8.38l-.34,1.63a.73.73,0,0,0,1.18.71l2.91-2.41.06-.05v5.33H519.13Z"/><path class="cls-12" d="M519.23,247.33v0a.7.7,0,0,0-.7-.69h-.18l-2.86-5.52a.7.7,0,0,0-.63-.38H510l.19-1.47a2,2,0,0,0-2-2.22H493a.75.75,0,0,0-.74.67l-.15,1.21h8.62a1,1,0,0,1,1,1,1,1,0,0,1-1,1H489.38a.74.74,0,0,0-.74.72.69.69,0,0,0,.7.72h11.18a1.05,1.05,0,0,1,.89,1.07,1.12,1.12,0,0,1-1.11,1.09h-7.71a.75.75,0,0,0-.74.72.7.7,0,0,0,.7.72h7.62a1.05,1.05,0,0,1,.91,1.07,1.12,1.12,0,0,1-1.11,1.09h-9.47a.75.75,0,0,0-.74.72.7.7,0,0,0,.7.72h.63l-.25,2.59a2,2,0,0,0,2,2.22h.55a3.16,3.16,0,0,0,3.13,2.61,3.37,3.37,0,0,0,3.26-2.61h6.82a2.31,2.31,0,0,0,1.48-.56,2,2,0,0,0,1.41.56h.11a3.16,3.16,0,0,0,3.13,2.61,3.37,3.37,0,0,0,3.26-2.61h.45a2.38,2.38,0,0,0,2.32-2.13l.44-4.89v0S519.23,247.34,519.23,247.33Zm-22.65,8.25a1.76,1.76,0,0,1-1.76-1.81,1.87,1.87,0,0,1,1.86-1.81,1.76,1.76,0,0,1,1.76,1.81A1.87,1.87,0,0,1,496.58,255.58Zm16.22,0a1.76,1.76,0,0,1-1.76-1.81,1.87,1.87,0,0,1,1.86-1.81,1.76,1.76,0,0,1,1.76,1.81A1.87,1.87,0,0,1,512.8,255.58Zm4.55-3.38a.87.87,0,0,1-.84.77H516a3.16,3.16,0,0,0-3.09-2.45,3.37,3.37,0,0,0-3.22,2.45h-.15a.61.61,0,0,1-.46-.19.62.62,0,0,1-.15-.48l.91-10.11H512l-.33,3.68a2,2,0,0,0,2,2.22h4.08Z"/><g id="check-circle-outline"><path class="cls-13" d="M448.25,314.85l-1.66,1.66,5.33,5.33L463.78,310l-1.66-1.66-10.19,10.19Zm14.34,2.25a9.48,9.48,0,1,1-9.48-9.48,9.24,9.24,0,0,1,2.61.36l1.9-1.9a14.42,14.42,0,0,0-4.5-.83A11.85,11.85,0,1,0,465,317.1Z"/></g></svg>